<svg height="1348" node-id="1" sillyvg="true" template-height="1348" template-width="1340" version="1.1" viewBox="0 0 1340 1348" width="1340" xmlns="http://www.w3.org/2000/svg" xmlns:xlink="http://www.w3.org/1999/xlink"><defs node-id="67"><clipPath id="clip0_386_1660" node-id="64"><path d="M 0.00 0.00 L 1340.00 0.00 L 1340.00 1348.00 L 0.00 1348.00 Z" fill="#000000" fill-rule="nonzero" node-id="70" stroke="none" target-height="1348" target-width="1340" target-x="0" target-y="0"/></clipPath></defs><g clip-path="url(#clip0_386_1660)" id="sillyvg_g_0" node-id="74"><path d="M 0.00 0.00 L 1340.00 0.00 L 1340.00 1348.00 L 0.00 1348.00 L 0.00 0.00 Z M 842.00 143.60 L 834.60 146.20 L 826.10 150.90 L 811.60 161.00 L 805.40 166.20 L 802.70 169.20 L 800.40 172.40 L 799.20 174.80 L 798.40 177.30 L 797.90 182.20 L 798.60 186.30 L 799.90 189.20 L 803.70 194.50 L 811.90 202.20 L 818.20 207.30 L 824.80 212.10 L 831.70 216.30 L 836.40 218.80 L 841.40 220.90 L 853.10 224.90 L 859.70 226.60 L 866.50 227.90 L 873.40 228.70 L 880.20 229.10 L 894.10 228.70 L 900.90 227.90 L 912.20 225.90 L 916.70 224.70 L 921.00 223.20 L 925.00 221.00 L 930.20 216.90 L 934.30 211.80 L 935.90 208.90 L 937.10 205.80 L 937.90 202.70 L 938.10 199.40 L 937.80 196.00 L 936.90 192.20 L 934.30 184.90 L 931.60 179.70 L 928.40 174.70 L 921.30 165.30 L 914.40 158.30 L 906.60 152.40 L 900.90 149.10 L 895.00 146.30 L 888.80 144.20 L 879.20 142.10 L 869.30 141.50 L 851.00 141.90 L 846.50 142.50 L 842.00 143.60 Z M 475.00 148.70 L 463.40 152.80 L 452.20 158.30 L 446.90 161.50 L 441.90 165.20 L 437.20 169.20 L 432.90 173.60 L 428.90 178.40 L 426.60 181.90 L 423.00 189.30 L 420.90 195.10 L 418.00 207.20 L 415.20 222.90 L 412.80 242.10 L 411.70 256.50 L 409.00 305.80 L 408.20 328.90 L 407.80 334.70 L 407.60 368.00 L 408.60 385.20 L 408.60 389.50 L 408.10 393.90 L 400.10 394.00 L 386.90 395.30 L 381.80 396.30 L 371.10 399.40 L 360.60 403.70 L 352.90 407.50 L 324.00 423.20 L 319.60 424.70 L 317.20 424.90 L 315.70 417.10 L 314.20 395.00 L 313.80 382.30 L 312.50 358.30 L 311.70 349.50 L 309.00 309.30 L 308.30 266.70 L 307.40 248.90 L 306.20 234.70 L 303.70 220.70 L 300.80 210.50 L 297.80 203.90 L 295.80 201.10 L 292.30 198.00 L 290.10 197.00 L 286.60 196.10 L 283.10 195.60 L 279.60 195.60 L 274.30 196.10 L 263.90 198.60 L 253.20 202.40 L 247.80 204.90 L 237.50 211.00 L 231.00 215.70 L 224.80 220.80 L 218.90 226.20 L 210.40 234.90 L 202.50 243.90 L 195.90 253.70 L 193.00 258.90 L 190.50 264.40 L 188.50 269.90 L 186.90 275.60 L 185.90 281.50 L 185.50 287.30 L 186.00 304.70 L 186.20 350.00 L 186.70 361.30 L 189.70 402.70 L 193.00 444.10 L 197.90 497.80 L 199.90 524.60 L 205.40 605.30 L 206.60 629.80 L 207.30 654.20 L 207.10 666.40 L 204.90 714.70 L 203.70 750.70 L 204.90 772.40 L 205.70 779.60 L 206.90 786.70 L 208.60 793.70 L 209.70 796.90 L 212.70 802.90 L 216.80 808.20 L 219.20 810.60 L 223.10 813.80 L 227.30 816.50 L 229.00 817.20 L 232.30 817.60 L 234.70 817.10 L 237.20 816.20 L 241.60 813.50 L 244.00 811.40 L 246.00 809.00 L 247.60 806.40 L 249.50 802.20 L 250.80 797.60 L 252.50 788.40 L 252.90 779.90 L 252.70 745.80 L 253.20 737.30 L 255.30 720.80 L 257.70 709.90 L 259.40 704.60 L 261.60 704.10 L 264.30 726.20 L 267.30 748.20 L 276.70 805.50 L 278.50 819.00 L 279.80 832.60 L 280.50 846.20 L 280.50 864.30 L 278.80 886.80 L 277.20 900.30 L 275.20 913.70 L 271.20 937.00 L 269.20 954.00 L 268.80 967.50 L 269.10 974.20 L 269.90 981.00 L 271.20 987.70 L 274.10 996.10 L 277.00 1001.40 L 280.90 1005.80 L 283.30 1007.50 L 286.00 1008.80 L 293.70 1011.40 L 297.80 1012.20 L 301.80 1012.60 L 304.50 1012.40 L 307.10 1011.80 L 309.70 1010.80 L 313.40 1008.00 L 316.80 1003.40 L 319.40 996.80 L 320.30 993.40 L 320.80 987.90 L 320.60 977.10 L 319.60 969.00 L 313.20 936.90 L 312.00 928.90 L 311.10 918.30 L 310.30 897.10 L 310.40 881.10 L 311.00 865.20 L 316.30 774.40 L 318.80 720.00 L 319.60 691.20 L 320.30 681.60 L 321.00 654.40 L 321.60 645.30 L 322.20 617.30 L 322.30 589.20 L 321.90 559.80 L 322.60 557.40 L 323.80 555.90 L 325.40 554.70 L 353.30 536.90 L 362.90 531.50 L 376.10 525.00 L 389.70 519.60 L 396.80 517.50 L 404.00 515.80 L 406.10 515.50 L 408.20 515.70 L 412.40 516.70 L 412.90 540.80 L 414.00 564.80 L 417.50 612.90 L 421.60 660.80 L 424.80 728.30 L 426.40 750.80 L 429.40 773.10 L 432.30 785.30 L 434.00 790.00 L 437.50 797.30 L 439.30 799.90 L 441.60 802.20 L 444.10 804.30 L 446.80 805.90 L 449.70 807.10 L 454.30 807.80 L 459.10 807.10 L 461.60 805.10 L 463.80 802.70 L 465.60 800.00 L 467.10 797.10 L 469.50 791.10 L 471.70 783.80 L 473.40 776.40 L 474.60 768.90 L 475.30 761.30 L 475.60 746.00 L 475.00 734.60 L 471.80 705.10 L 471.20 696.00 L 471.00 686.90 L 471.80 674.80 L 472.80 668.80 L 474.00 663.90 L 475.80 659.10 L 477.30 657.10 L 479.20 655.50 L 480.30 655.50 L 482.00 656.20 L 483.00 657.30 L 485.00 661.40 L 486.50 667.30 L 487.50 673.30 L 488.10 679.30 L 488.50 688.40 L 488.80 715.70 L 489.20 718.20 L 491.10 722.10 L 493.50 724.30 L 495.00 724.90 L 496.60 725.10 L 498.50 724.90 L 501.60 724.10 L 504.60 723.00 L 507.40 721.40 L 511.30 718.60 L 514.90 715.30 L 518.20 711.60 L 521.00 707.70 L 524.00 701.70 L 526.40 695.50 L 528.30 689.10 L 529.60 682.60 L 530.60 676.00 L 531.10 669.30 L 531.30 659.20 L 530.90 649.30 L 528.50 630.50 L 525.70 611.70 L 519.20 574.30 L 517.40 562.10 L 516.00 549.80 L 515.10 537.60 L 514.30 519.10 L 513.90 463.60 L 513.70 445.10 L 513.00 426.70 L 512.90 402.00 L 513.10 377.30 L 513.60 370.50 L 514.00 349.80 L 516.00 313.00 L 517.60 290.10 L 519.10 274.80 L 526.30 218.50 L 527.70 205.60 L 528.60 192.60 L 528.90 184.00 L 528.30 166.60 L 527.00 160.10 L 526.10 157.00 L 524.70 154.00 L 523.10 151.60 L 521.10 149.60 L 518.70 147.90 L 513.50 145.50 L 510.70 144.70 L 504.70 144.20 L 498.70 144.30 L 492.70 144.80 L 486.70 145.70 L 475.00 148.70 Z M 847.10 250.80 L 840.30 253.20 L 834.10 256.90 L 828.70 261.70 L 824.30 267.40 L 819.60 276.30 L 817.10 282.20 L 815.10 288.20 L 812.10 300.60 L 811.10 306.90 L 810.20 316.50 L 809.80 326.10 L 810.10 345.30 L 811.80 362.20 L 813.90 379.10 L 821.00 423.90 L 825.30 446.20 L 828.10 457.20 L 831.20 467.10 L 834.60 477.00 L 838.50 486.60 L 842.90 496.10 L 847.60 505.40 L 852.70 514.50 L 858.20 523.30 L 864.10 531.90 L 867.50 536.30 L 871.30 540.30 L 874.10 542.70 L 877.20 544.60 L 880.60 546.20 L 886.30 547.90 L 892.30 548.50 L 895.20 548.20 L 898.10 547.20 L 900.10 546.10 L 901.80 544.70 L 903.20 543.00 L 904.80 540.00 L 905.90 536.80 L 906.30 532.50 L 906.10 523.80 L 905.30 517.30 L 901.70 498.10 L 896.70 474.20 L 894.50 462.20 L 892.70 450.10 L 890.50 426.40 L 890.00 414.50 L 889.90 402.60 L 890.30 390.70 L 892.10 369.30 L 898.00 322.10 L 900.10 300.40 L 900.70 285.90 L 900.40 278.60 L 899.80 274.60 L 897.80 267.90 L 895.20 263.20 L 893.40 261.10 L 891.40 259.30 L 889.00 257.80 L 884.70 255.60 L 875.70 252.30 L 866.30 250.30 L 856.60 249.80 L 847.10 250.80 Z M 633.10 272.90 L 626.00 276.50 L 619.20 280.50 L 612.60 284.80 L 606.30 289.60 L 594.50 300.00 L 583.60 311.50 L 576.90 319.70 L 570.60 328.10 L 564.70 336.80 L 559.80 344.80 L 555.20 352.90 L 551.10 361.20 L 547.30 369.70 L 544.00 378.30 L 540.20 389.30 L 536.90 400.40 L 534.20 411.70 L 531.90 423.20 L 530.10 434.70 L 528.70 446.20 L 527.70 457.80 L 527.10 469.30 L 526.90 486.40 L 527.60 514.70 L 528.50 526.00 L 530.50 546.30 L 531.80 555.30 L 533.50 564.20 L 535.80 572.90 L 537.70 578.60 L 540.00 584.10 L 542.60 589.60 L 547.30 597.20 L 552.50 604.40 L 569.00 625.30 L 574.30 632.50 L 577.50 637.40 L 580.20 642.60 L 581.70 646.20 L 583.80 653.70 L 584.40 657.60 L 584.50 665.40 L 583.60 671.50 L 582.00 677.50 L 576.70 695.40 L 575.50 701.50 L 575.10 707.20 L 575.30 718.60 L 575.90 721.40 L 577.00 724.00 L 578.70 726.30 L 580.70 728.40 L 583.00 730.00 L 585.60 731.40 L 588.30 732.30 L 591.10 732.60 L 593.90 732.50 L 596.80 730.90 L 599.20 728.80 L 601.20 726.40 L 604.40 720.60 L 605.50 717.60 L 606.40 713.60 L 606.90 709.60 L 607.00 705.60 L 606.60 699.50 L 604.60 681.30 L 604.10 668.40 L 604.10 655.50 L 604.60 642.60 L 606.60 630.90 L 610.20 619.80 L 613.30 612.60 L 616.80 605.50 L 620.70 598.60 L 627.00 588.60 L 642.50 566.80 L 651.60 554.80 L 661.00 543.20 L 670.80 531.90 L 684.70 517.50 L 692.10 510.70 L 699.60 504.60 L 705.10 501.20 L 708.10 500.00 L 710.70 507.60 L 712.70 515.40 L 714.40 523.20 L 717.80 547.10 L 718.20 577.40 L 718.70 585.00 L 720.60 598.80 L 721.90 605.10 L 723.70 611.20 L 725.90 617.20 L 729.70 624.70 L 732.10 628.30 L 734.90 616.30 L 736.90 610.40 L 739.40 604.70 L 745.70 592.50 L 745.40 568.20 L 746.20 554.80 L 747.00 549.50 L 750.10 538.40 L 752.40 532.90 L 754.10 530.40 L 756.20 528.20 L 757.20 534.90 L 758.20 555.30 L 758.70 562.10 L 759.80 568.80 L 765.20 563.70 L 773.10 555.70 L 781.20 548.20 L 798.10 533.90 L 798.20 529.90 L 797.80 526.00 L 786.50 474.40 L 781.80 449.90 L 780.40 440.00 L 771.30 360.20 L 767.20 332.30 L 765.30 323.10 L 763.00 314.00 L 760.00 305.10 L 757.70 299.40 L 754.90 293.70 L 751.80 288.30 L 748.40 283.30 L 744.50 278.80 L 740.20 274.70 L 735.50 271.00 L 730.50 267.80 L 725.20 265.10 L 719.60 262.90 L 713.90 261.20 L 708.00 260.10 L 699.50 259.30 L 690.90 259.10 L 682.40 259.50 L 673.90 260.50 L 665.50 262.00 L 657.20 264.00 L 649.00 266.50 L 641.00 269.50 L 633.10 272.90 Z M 914.90 504.50 L 917.90 523.70 L 918.30 533.30 L 917.80 540.20 L 915.80 546.90 L 914.30 549.90 L 912.50 552.80 L 910.30 555.40 L 907.70 557.70 L 904.70 559.60 L 902.20 560.80 L 896.80 562.10 L 892.70 562.10 L 888.50 561.60 L 880.40 559.40 L 875.90 557.60 L 871.70 555.30 L 867.80 552.60 L 864.10 549.60 L 857.40 542.70 L 852.90 536.90 L 848.90 531.00 L 844.00 522.90 L 842.10 520.40 L 837.50 521.70 L 825.40 527.60 L 818.00 531.80 L 810.70 536.40 L 803.70 541.40 L 796.80 546.70 L 788.70 553.70 L 780.90 561.10 L 773.50 568.90 L 766.50 577.20 L 760.50 585.40 L 754.90 594.00 L 751.50 599.90 L 745.60 612.20 L 743.20 618.60 L 741.30 625.10 L 739.90 631.80 L 735.50 660.30 L 733.60 669.70 L 732.50 673.70 L 729.10 681.20 L 725.80 686.50 L 715.10 701.00 L 711.90 706.00 L 709.10 711.30 L 706.20 718.60 L 705.20 722.50 L 704.10 727.10 L 703.20 736.50 L 703.30 743.60 L 703.80 750.60 L 708.10 747.20 L 712.60 744.20 L 715.80 742.50 L 719.10 741.20 L 747.30 734.80 L 755.30 732.40 L 760.50 730.30 L 765.50 727.80 L 770.30 724.80 L 772.90 722.80 L 775.30 720.60 L 783.80 710.40 L 786.30 707.80 L 789.20 705.60 L 795.50 702.20 L 802.50 700.10 L 807.90 699.30 L 818.90 699.30 L 824.30 700.10 L 829.60 701.40 L 834.80 703.20 L 839.80 705.50 L 844.60 708.20 L 849.20 711.30 L 853.50 714.70 L 861.90 723.20 L 874.30 738.20 L 877.20 741.30 L 883.70 746.90 L 896.20 755.70 L 902.50 761.20 L 906.60 766.70 L 908.80 771.00 L 910.50 775.50 L 911.70 780.30 L 912.40 785.20 L 912.50 790.00 L 912.10 794.90 L 911.20 799.70 L 909.60 804.20 L 907.50 808.70 L 902.70 814.90 L 899.90 817.70 L 895.30 821.50 L 890.40 824.90 L 885.20 827.80 L 879.90 830.40 L 872.50 833.40 L 865.00 835.90 L 849.60 839.80 L 829.40 844.00 L 811.30 849.40 L 802.20 851.00 L 797.60 851.30 L 779.40 851.10 L 786.60 855.20 L 801.50 862.30 L 809.10 865.40 L 819.50 869.00 L 830.10 872.20 L 840.80 875.00 L 857.00 878.50 L 878.60 882.60 L 883.80 884.20 L 880.30 885.10 L 873.00 885.90 L 858.60 885.00 L 840.80 882.50 L 826.70 879.20 L 821.30 888.20 L 815.40 896.80 L 769.40 957.00 L 756.40 975.50 L 750.30 985.00 L 746.20 993.30 L 742.50 1001.70 L 739.20 1010.30 L 734.80 1023.40 L 728.40 1045.80 L 727.30 1050.50 L 726.60 1055.20 L 731.30 1053.20 L 749.30 1043.30 L 757.10 1040.40 L 764.00 1039.50 L 767.60 1039.60 L 771.10 1040.10 L 774.60 1041.10 L 777.90 1042.50 L 780.90 1044.30 L 783.80 1046.50 L 786.30 1049.00 L 788.40 1051.90 L 793.20 1061.40 L 797.90 1074.40 L 800.60 1084.40 L 802.60 1094.50 L 805.50 1115.20 L 807.40 1135.80 L 811.30 1135.50 L 815.10 1134.80 L 818.80 1133.70 L 822.40 1132.20 L 829.00 1128.20 L 832.10 1125.70 L 837.40 1120.10 L 839.10 1121.80 L 839.50 1123.90 L 838.40 1126.10 L 832.80 1131.90 L 829.70 1134.50 L 822.80 1138.70 L 819.10 1140.40 L 815.30 1141.80 L 807.50 1143.60 L 807.70 1160.40 L 807.40 1177.30 L 820.40 1176.30 L 826.90 1176.30 L 861.80 1180.60 L 876.00 1181.90 L 889.80 1181.90 L 903.50 1181.50 L 917.30 1180.70 L 944.70 1177.90 L 971.90 1173.60 L 985.40 1170.80 L 997.80 1167.90 L 1010.30 1164.60 L 1022.60 1161.00 L 1034.60 1156.70 L 1042.50 1153.50 L 1050.30 1149.90 L 1057.80 1145.80 L 1063.20 1142.50 L 1068.40 1138.80 L 1073.20 1134.80 L 1077.80 1130.50 L 1083.50 1124.40 L 1088.80 1117.90 L 1093.80 1111.10 L 1100.70 1100.50 L 1107.00 1089.60 L 1115.80 1071.80 L 1123.40 1053.60 L 1129.80 1034.80 L 1132.40 1025.30 L 1134.60 1015.70 L 1136.30 1005.90 L 1137.60 995.20 L 1138.30 991.70 L 1139.50 988.40 L 1144.20 980.10 L 1146.70 974.70 L 1148.60 969.10 L 1143.60 967.30 L 1140.60 949.50 L 1137.80 937.00 L 1135.60 930.60 L 1133.00 924.40 L 1129.80 918.40 L 1126.20 912.70 L 1122.00 907.40 L 1119.10 904.40 L 1116.00 901.90 L 1112.50 899.60 L 1108.90 897.80 L 1105.00 896.60 L 1101.00 896.00 L 1098.10 903.80 L 1095.20 908.50 L 1093.30 910.60 L 1090.30 913.00 L 1083.70 916.80 L 1078.40 918.90 L 1073.00 920.70 L 1066.70 922.00 L 1054.10 923.60 L 1044.60 924.00 L 1035.00 923.90 L 1015.80 923.00 L 1024.40 930.50 L 1033.20 937.60 L 1051.60 951.00 L 1055.50 951.60 L 1059.50 951.80 L 1075.50 951.60 L 1079.50 952.00 L 1083.40 953.00 L 1085.30 953.90 L 1088.40 956.60 L 1090.10 959.10 L 1091.40 962.00 L 1093.40 967.90 L 1094.60 974.50 L 1095.30 981.10 L 1095.40 987.80 L 1095.00 994.40 L 1094.10 1001.00 L 1092.80 1007.60 L 1091.00 1014.10 L 1086.50 1026.60 L 1083.70 1032.50 L 1080.50 1038.10 L 1076.90 1043.50 L 1073.00 1048.70 L 1068.70 1053.60 L 1064.20 1058.20 L 1059.30 1062.60 L 1049.00 1070.40 L 1042.80 1073.80 L 1036.40 1076.70 L 1029.70 1079.10 L 1023.00 1081.10 L 1016.10 1082.60 L 1009.10 1083.80 L 1002.10 1084.50 L 988.00 1084.80 L 981.50 1084.30 L 975.10 1083.40 L 968.80 1081.80 L 962.70 1079.80 L 956.70 1077.30 L 950.90 1074.40 L 943.80 1070.40 L 937.10 1065.90 L 930.60 1061.00 L 924.50 1055.50 L 918.90 1049.60 L 913.80 1043.30 L 910.30 1038.30 L 907.20 1033.10 L 904.40 1027.70 L 900.40 1017.90 L 898.40 1009.30 L 897.70 1002.70 L 897.40 996.00 L 898.30 982.80 L 899.80 976.90 L 901.80 971.00 L 903.50 967.20 L 905.60 963.60 L 907.90 960.30 L 910.60 957.30 L 913.80 954.70 L 917.30 952.60 L 917.00 955.00 L 916.30 957.20 L 910.10 970.40 L 908.40 975.30 L 907.10 980.40 L 906.30 985.60 L 905.90 990.80 L 906.10 1001.10 L 906.60 1006.10 L 907.60 1011.00 L 908.90 1015.80 L 911.30 1022.10 L 914.30 1028.10 L 917.80 1033.90 L 921.70 1039.40 L 926.00 1044.50 L 930.70 1049.30 L 936.90 1054.60 L 943.50 1059.50 L 950.30 1063.90 L 955.70 1066.90 L 961.20 1069.50 L 966.90 1071.80 L 977.00 1074.70 L 985.60 1075.60 L 998.70 1075.70 L 1005.60 1075.40 L 1012.50 1074.50 L 1019.40 1073.00 L 1026.10 1071.20 L 1031.30 1069.30 L 1041.20 1064.60 L 1045.90 1061.80 L 1051.80 1057.50 L 1057.30 1052.80 L 1062.50 1047.50 L 1067.20 1041.90 L 1071.40 1035.90 L 1075.10 1029.60 L 1078.60 1022.30 L 1081.50 1014.70 L 1083.80 1006.90 L 1085.10 1000.90 L 1086.00 994.90 L 1086.50 988.80 L 1086.40 974.80 L 1086.10 970.80 L 1085.10 967.10 L 1084.10 964.70 L 1082.70 962.60 L 1080.80 960.70 L 1074.40 960.40 L 1048.90 960.30 L 1034.50 958.80 L 1026.50 957.50 L 1018.60 955.80 L 1006.90 952.60 L 993.90 948.30 L 991.20 945.10 L 999.30 944.70 L 1009.30 945.80 L 1027.30 949.20 L 1033.30 950.10 L 1039.40 950.40 L 1027.50 942.80 L 1021.90 938.70 L 1011.80 929.90 L 1002.80 920.90 L 998.70 916.00 L 991.30 905.70 L 988.20 900.20 L 985.60 894.40 L 983.30 888.40 L 965.90 889.40 L 960.00 889.50 L 952.40 888.70 L 948.50 887.80 L 948.30 883.30 L 956.20 882.30 L 968.10 881.70 L 982.80 880.10 L 993.40 878.30 L 1003.90 875.90 L 1014.20 872.90 L 1024.40 869.30 L 1034.40 865.20 L 1043.00 861.20 L 1051.30 856.60 L 1059.30 851.60 L 1067.00 846.20 L 1074.50 840.30 L 1081.50 834.00 L 1088.20 827.30 L 1094.50 820.20 L 1100.50 812.80 L 1106.00 805.10 L 1111.00 797.10 L 1115.60 788.80 L 1119.40 781.20 L 1122.90 773.50 L 1125.90 765.60 L 1128.60 757.60 L 1132.80 741.30 L 1135.60 724.60 L 1136.80 707.70 L 1136.60 690.80 L 1136.00 682.40 L 1133.60 665.60 L 1129.60 648.80 L 1127.10 640.40 L 1124.20 632.20 L 1120.80 624.10 L 1117.10 616.20 L 1113.00 608.40 L 1108.60 600.90 L 1103.80 593.50 L 1098.70 586.40 L 1087.50 572.90 L 1075.20 560.50 L 1068.60 554.70 L 1061.70 549.30 L 1054.60 544.10 L 1046.40 538.70 L 1037.90 533.70 L 1029.20 529.10 L 1020.40 524.90 L 1011.30 521.00 L 1002.00 517.50 L 992.70 514.50 L 983.20 511.80 L 973.70 509.60 L 964.00 507.70 L 954.20 506.30 L 944.40 505.20 L 934.60 504.60 L 924.80 504.40 L 914.90 504.50 Z M 792.00 712.00 L 788.90 714.50 L 786.20 717.30 L 778.60 726.20 L 775.70 728.90 L 772.10 732.00 L 764.20 737.00 L 759.90 739.00 L 754.00 741.30 L 748.00 743.10 L 726.20 747.80 L 721.20 749.40 L 718.00 750.80 L 714.90 752.50 L 712.00 754.70 L 708.80 757.60 L 705.90 760.90 L 704.20 763.40 L 701.80 768.60 L 701.10 771.40 L 700.80 774.30 L 700.90 777.30 L 703.20 784.70 L 704.80 788.30 L 706.70 791.70 L 711.50 797.90 L 712.60 798.50 L 714.60 798.10 L 732.10 786.00 L 747.10 776.50 L 737.80 776.30 L 726.20 777.60 L 719.30 779.00 L 715.80 779.40 L 713.90 779.60 L 711.20 779.10 L 709.80 777.30 L 711.30 775.20 L 713.00 773.40 L 715.00 772.00 L 718.30 770.40 L 721.90 769.20 L 729.30 767.60 L 735.90 767.10 L 742.40 767.10 L 748.90 767.50 L 755.30 768.40 L 763.80 770.20 L 772.20 772.50 L 780.50 775.40 L 788.60 778.80 L 796.50 782.40 L 823.50 796.20 L 830.20 799.00 L 839.30 802.00 L 844.00 803.00 L 852.00 803.90 L 860.00 804.40 L 863.90 804.10 L 871.00 802.90 L 876.80 800.50 L 881.90 797.00 L 886.20 792.30 L 889.30 786.90 L 892.90 788.40 L 893.00 791.40 L 892.50 794.20 L 891.50 796.80 L 890.20 799.30 L 886.50 803.70 L 883.10 806.60 L 879.50 808.90 L 876.20 810.40 L 872.90 811.50 L 869.50 812.30 L 864.20 812.90 L 848.20 812.80 L 836.00 811.20 L 830.60 817.50 L 824.70 823.30 L 821.10 826.30 L 814.40 830.90 L 808.70 833.40 L 805.70 834.20 L 802.60 834.40 L 799.30 834.30 L 810.60 828.60 L 816.00 825.40 L 820.50 821.90 L 824.60 818.10 L 829.40 812.40 L 831.50 809.20 L 826.30 808.80 L 821.20 808.80 L 816.10 809.20 L 798.40 812.20 L 789.70 814.40 L 781.20 817.20 L 770.00 821.70 L 764.50 824.30 L 759.30 827.20 L 754.30 830.60 L 749.70 834.40 L 755.00 837.00 L 765.90 841.00 L 771.60 842.40 L 779.30 843.80 L 787.00 844.60 L 794.70 844.90 L 800.00 844.70 L 805.10 843.90 L 815.10 841.00 L 829.80 835.60 L 834.80 834.00 L 851.60 830.30 L 868.20 825.40 L 878.90 821.10 L 884.00 818.60 L 888.30 816.00 L 892.30 813.00 L 897.10 808.40 L 900.90 803.00 L 902.20 800.00 L 903.10 796.80 L 903.90 787.60 L 903.60 783.00 L 902.80 778.60 L 900.70 772.90 L 897.10 767.60 L 892.40 763.10 L 880.20 754.70 L 871.90 747.80 L 868.00 743.60 L 856.90 730.00 L 849.10 722.10 L 845.00 718.90 L 840.70 716.00 L 836.00 713.50 L 831.20 711.40 L 826.30 709.70 L 821.20 708.50 L 816.10 707.60 L 811.90 707.40 L 803.60 707.80 L 799.60 708.70 L 795.70 710.10 L 792.00 712.00 Z M 575.30 756.70 L 567.40 758.50 L 559.50 760.80 L 549.50 764.90 L 544.80 767.40 L 540.20 770.30 L 535.90 773.60 L 531.90 777.30 L 528.90 780.60 L 526.20 784.10 L 523.80 787.80 L 520.80 793.80 L 518.30 800.00 L 516.20 806.40 L 511.10 825.60 L 510.20 829.90 L 509.80 834.20 L 510.00 838.60 L 513.90 835.20 L 515.80 832.40 L 516.70 828.00 L 519.00 820.20 L 525.30 815.90 L 536.70 811.80 L 538.80 804.00 L 541.80 796.60 L 543.80 793.20 L 546.20 790.10 L 548.80 787.30 L 554.90 782.40 L 558.20 780.30 L 563.50 777.70 L 568.90 775.50 L 580.10 772.60 L 591.50 771.20 L 599.20 770.90 L 606.80 771.30 L 614.50 772.10 L 622.10 773.50 L 629.60 775.30 L 644.50 780.30 L 652.00 783.30 L 670.10 792.10 L 691.50 803.40 L 702.40 808.70 L 705.90 806.20 L 703.50 801.90 L 700.70 797.90 L 697.60 795.00 L 694.10 792.60 L 680.10 784.20 L 673.30 780.50 L 668.60 777.20 L 663.70 774.40 L 653.60 769.30 L 645.40 765.70 L 637.00 762.50 L 628.40 759.90 L 619.70 757.80 L 610.90 756.30 L 602.00 755.30 L 595.30 755.10 L 588.60 755.20 L 581.90 755.80 L 575.30 756.70 Z M 716.90 804.90 L 709.00 811.50 L 701.60 818.50 L 694.50 825.80 L 687.80 833.60 L 681.60 841.80 L 675.80 850.20 L 670.40 858.90 L 665.50 867.90 L 689.30 874.10 L 708.30 878.40 L 710.80 872.50 L 713.80 866.90 L 717.20 861.60 L 724.90 851.50 L 735.90 840.00 L 742.70 833.40 L 748.00 829.00 L 753.40 824.90 L 759.10 821.10 L 765.00 817.70 L 771.20 814.60 L 783.80 809.50 L 790.40 807.40 L 799.30 805.20 L 808.20 803.70 L 817.30 802.70 L 801.80 793.90 L 785.80 786.20 L 769.10 779.90 L 760.60 778.00 L 757.90 778.40 L 756.50 779.10 L 736.10 791.10 L 723.10 800.00 L 716.90 804.90 Z M 543.50 815.70 L 536.60 817.00 L 529.80 819.00 L 526.60 820.40 L 523.70 822.30 L 522.00 823.80 L 521.00 825.70 L 520.40 827.90 L 520.40 830.10 L 520.80 832.20 L 521.80 834.20 L 523.60 836.80 L 528.00 841.40 L 531.70 844.40 L 541.30 850.60 L 553.00 856.90 L 571.30 864.90 L 584.20 869.70 L 597.30 874.20 L 610.50 878.30 L 623.80 881.90 L 650.80 888.00 L 679.60 892.70 L 694.20 894.40 L 708.70 895.50 L 718.40 895.80 L 728.20 895.70 L 737.90 895.10 L 744.80 893.90 L 748.10 892.80 L 751.20 891.10 L 752.10 889.80 L 752.40 888.50 L 751.80 885.50 L 750.60 882.60 L 749.00 880.00 L 744.90 875.40 L 741.40 872.50 L 737.50 869.80 L 729.60 865.00 L 725.40 863.00 L 723.30 863.10 L 719.50 868.00 L 718.10 870.70 L 714.40 879.20 L 724.20 883.10 L 718.00 884.30 L 707.30 882.70 L 681.60 877.00 L 668.20 873.50 L 654.80 869.50 L 646.10 866.40 L 637.60 862.80 L 629.30 858.70 L 623.20 854.70 L 621.50 853.10 L 620.10 851.20 L 619.10 849.00 L 618.90 847.80 L 619.50 845.80 L 620.50 844.60 L 623.40 843.00 L 630.20 841.90 L 635.40 841.70 L 640.60 841.80 L 648.30 842.70 L 671.50 846.60 L 677.20 838.40 L 661.40 833.40 L 641.10 828.60 L 628.90 826.30 L 604.20 822.60 L 580.30 820.30 L 564.30 819.70 L 556.40 819.80 L 548.40 820.40 L 540.50 821.50 L 532.70 823.20 L 536.90 820.70 L 539.20 819.70 L 548.50 817.80 L 562.70 816.70 L 584.00 816.80 L 610.40 819.50 L 623.50 821.30 L 636.60 823.50 L 649.60 826.20 L 662.50 829.40 L 676.00 833.20 L 680.60 834.10 L 676.10 832.10 L 671.50 830.50 L 650.00 824.60 L 637.90 821.90 L 625.70 819.60 L 613.50 817.80 L 590.20 815.20 L 578.50 814.50 L 566.80 814.20 L 559.00 814.30 L 543.50 815.70 Z M 518.40 838.30 L 518.10 842.90 L 518.60 845.80 L 521.90 849.80 L 527.40 854.60 L 531.90 857.70 L 546.20 865.80 L 560.40 872.30 L 574.80 878.20 L 589.50 883.50 L 604.40 888.30 L 619.40 892.50 L 634.50 896.20 L 649.00 899.20 L 663.60 901.70 L 678.30 903.80 L 700.40 905.90 L 722.70 906.30 L 733.80 905.90 L 737.40 905.50 L 741.00 904.70 L 745.70 903.00 L 746.60 902.30 L 749.20 898.20 L 734.70 900.00 L 720.00 900.50 L 712.70 900.30 L 695.30 899.00 L 675.40 896.70 L 660.50 894.20 L 645.70 891.50 L 632.30 888.50 L 618.90 885.20 L 605.70 881.50 L 592.60 877.30 L 579.60 872.80 L 566.70 867.90 L 549.30 860.20 L 543.60 857.30 L 532.80 850.70 L 527.70 847.00 L 522.90 842.90 L 518.40 838.30 Z M 408.40 845.30 L 406.90 846.70 L 405.80 848.30 L 404.50 852.20 L 403.60 856.10 L 398.30 881.90 L 396.90 890.60 L 396.90 898.30 L 397.40 902.20 L 398.40 905.90 L 399.90 909.40 L 402.00 912.70 L 404.40 915.40 L 407.30 917.50 L 408.90 918.20 L 413.10 918.40 L 415.30 918.10 L 417.30 917.30 L 420.20 915.70 L 422.80 913.50 L 425.10 910.90 L 428.30 906.20 L 429.80 901.90 L 430.30 898.50 L 430.40 895.00 L 429.80 888.20 L 427.00 873.90 L 425.10 866.80 L 422.60 860.00 L 420.60 855.70 L 418.10 851.50 L 414.40 846.60 L 412.10 845.10 L 410.80 844.80 L 409.60 844.80 L 408.40 845.30 Z M 623.10 848.00 L 627.20 852.50 L 629.60 854.30 L 632.30 855.80 L 645.80 861.80 L 652.70 864.20 L 659.80 866.30 L 668.10 851.20 L 653.30 848.00 L 645.70 846.80 L 638.10 846.20 L 633.10 846.30 L 628.10 846.90 L 623.10 848.00 Z M 515.50 858.60 L 517.70 861.60 L 520.30 864.10 L 526.20 868.50 L 533.20 872.80 L 547.60 880.40 L 558.70 885.40 L 570.10 890.00 L 583.50 894.70 L 596.90 899.00 L 610.60 902.90 L 624.30 906.40 L 638.10 909.50 L 652.00 912.20 L 670.10 914.80 L 688.30 916.80 L 700.50 917.70 L 712.80 918.00 L 725.00 917.80 L 733.70 916.70 L 738.00 915.70 L 742.10 914.10 L 745.10 908.20 L 736.90 909.50 L 723.10 910.70 L 717.60 910.70 L 698.60 909.80 L 685.10 908.70 L 671.80 907.10 L 658.40 905.10 L 645.20 902.60 L 632.00 899.80 L 616.60 896.00 L 601.30 891.60 L 586.20 886.80 L 563.90 878.30 L 553.00 873.60 L 542.20 868.40 L 535.40 864.80 L 528.80 860.60 L 524.70 857.60 L 517.00 850.60 L 515.50 858.60 Z M 508.70 859.10 L 466.80 1022.20 L 453.30 1076.70 L 451.40 1085.60 L 450.30 1094.70 L 450.60 1100.70 L 452.40 1107.80 L 454.00 1111.70 L 456.00 1115.30 L 460.80 1122.10 L 468.20 1129.60 L 472.90 1133.70 L 479.90 1138.80 L 487.10 1143.40 L 494.50 1147.60 L 509.90 1155.00 L 517.90 1158.20 L 530.00 1162.50 L 542.20 1166.40 L 564.70 1172.10 L 576.10 1174.40 L 587.60 1176.20 L 599.10 1177.60 L 616.60 1179.00 L 628.60 1179.10 L 637.50 1178.40 L 646.40 1177.50 L 658.80 1175.10 L 666.70 1172.30 L 673.10 1168.70 L 677.80 1164.50 L 681.50 1159.40 L 684.10 1153.70 L 685.30 1147.60 L 679.00 1158.30 L 677.20 1160.80 L 675.00 1163.00 L 671.60 1165.50 L 668.10 1167.70 L 664.40 1169.40 L 658.60 1171.40 L 652.50 1172.90 L 640.30 1174.90 L 630.70 1175.50 L 621.10 1175.60 L 611.50 1175.30 L 592.30 1173.70 L 582.80 1172.30 L 568.60 1169.90 L 554.50 1166.80 L 542.80 1163.70 L 531.20 1160.00 L 519.70 1155.90 L 511.30 1152.40 L 503.00 1148.50 L 494.90 1144.30 L 487.00 1139.70 L 480.70 1135.40 L 470.70 1127.40 L 463.70 1120.00 L 460.70 1115.90 L 458.20 1111.50 L 456.10 1106.80 L 454.90 1102.90 L 454.20 1098.90 L 454.10 1095.00 L 454.50 1089.00 L 455.50 1082.90 L 458.10 1071.10 L 466.80 1035.60 L 511.70 858.90 L 508.70 859.10 Z M 515.70 865.90 L 498.20 934.10 L 493.40 955.10 L 492.50 955.40 L 492.90 960.60 L 491.70 965.10 L 491.90 966.20 L 492.60 967.20 L 495.10 969.90 L 497.90 972.20 L 510.40 979.90 L 508.90 983.50 L 505.30 981.90 L 498.50 978.00 L 489.10 970.70 L 470.20 1047.80 L 464.10 1073.60 L 462.20 1083.40 L 461.70 1088.40 L 461.90 1096.60 L 463.50 1103.10 L 464.70 1106.30 L 468.10 1112.30 L 471.30 1116.30 L 474.90 1120.00 L 482.80 1126.50 L 490.80 1131.90 L 499.10 1136.80 L 507.70 1141.20 L 525.40 1148.80 L 546.00 1156.00 L 551.90 1157.50 L 557.90 1158.60 L 557.80 1159.50 L 586.70 1164.80 L 606.20 1167.10 L 624.50 1167.60 L 639.00 1167.20 L 650.40 1165.60 L 656.00 1164.20 L 661.40 1162.40 L 666.70 1160.10 L 670.20 1158.10 L 673.50 1155.60 L 675.40 1153.70 L 678.60 1149.30 L 680.60 1144.30 L 681.00 1141.70 L 678.30 1137.80 L 675.10 1134.40 L 652.40 1115.10 L 649.90 1112.60 L 647.20 1108.80 L 646.20 1106.60 L 646.20 1104.70 L 646.70 1103.20 L 647.50 1101.90 L 649.30 1100.30 L 654.00 1098.10 L 664.70 1094.70 L 667.30 1093.40 L 670.00 1090.90 L 671.00 1089.20 L 670.60 1086.20 L 669.60 1083.40 L 663.90 1072.70 L 663.00 1068.90 L 663.40 1064.90 L 664.10 1063.20 L 665.20 1061.70 L 667.20 1059.90 L 669.80 1058.40 L 675.20 1056.80 L 682.40 1056.30 L 704.30 1056.50 L 716.70 1010.60 L 711.60 1012.70 L 701.00 1015.90 L 692.90 1017.50 L 684.60 1018.60 L 676.30 1019.10 L 668.00 1019.30 L 654.40 1018.70 L 640.90 1017.60 L 627.40 1015.80 L 614.00 1013.70 L 587.30 1008.50 L 561.10 1001.80 L 548.10 998.00 L 535.30 993.80 L 522.60 989.10 L 510.20 983.90 L 511.90 980.70 L 533.40 988.40 L 548.10 993.40 L 563.00 997.90 L 578.00 1001.90 L 593.10 1005.50 L 608.40 1008.50 L 623.70 1011.00 L 639.10 1012.90 L 661.40 1014.90 L 668.20 1015.20 L 675.00 1015.00 L 681.80 1014.20 L 687.90 1013.90 L 694.10 1013.30 L 700.30 1012.20 L 706.20 1010.50 L 710.00 1008.90 L 713.60 1007.00 L 717.10 1004.70 L 720.80 1000.30 L 720.10 999.70 L 741.00 919.00 L 724.30 922.00 L 709.30 922.00 L 694.30 921.40 L 679.30 920.20 L 664.40 918.30 L 649.60 915.90 L 624.70 910.90 L 609.40 907.00 L 581.30 898.20 L 567.40 893.30 L 553.80 887.80 L 544.90 883.80 L 536.10 879.30 L 527.60 874.40 L 515.70 865.90 Z M 745.50 919.00 L 732.40 969.80 L 728.40 986.80 L 734.30 986.10 L 737.10 985.30 L 739.70 984.00 L 742.60 981.50 L 757.10 960.00 L 764.20 950.50 L 775.30 936.40 L 793.40 915.30 L 799.20 907.20 L 779.50 913.60 L 766.10 917.20 L 754.80 918.90 L 745.50 919.00 Z M 713.50 1039.20 L 716.20 1032.20 L 718.50 1025.00 L 720.60 1015.10 L 721.10 1010.10 L 716.40 1024.50 L 714.10 1034.20 L 713.50 1039.20 Z M 751.10 1048.30 L 734.00 1058.40 L 729.50 1060.50 L 724.80 1062.20 L 719.20 1063.70 L 713.60 1064.50 L 707.90 1064.90 L 680.90 1064.80 L 674.50 1065.70 L 671.40 1066.70 L 675.10 1082.80 L 675.00 1088.10 L 673.60 1092.40 L 672.30 1094.90 L 670.70 1097.00 L 668.80 1098.80 L 665.50 1101.00 L 661.80 1102.70 L 654.20 1105.40 L 660.50 1111.70 L 670.40 1120.60 L 677.40 1128.00 L 684.40 1136.90 L 689.20 1143.90 L 702.70 1165.50 L 707.50 1172.50 L 712.80 1179.20 L 718.40 1184.80 L 728.50 1193.30 L 737.40 1199.00 L 742.10 1201.30 L 747.00 1203.10 L 756.40 1205.40 L 760.70 1205.80 L 765.00 1205.70 L 769.30 1205.20 L 773.50 1204.30 L 777.60 1203.00 L 781.60 1201.30 L 785.30 1199.30 L 788.90 1196.90 L 791.10 1195.10 L 794.60 1190.70 L 796.60 1187.00 L 798.00 1183.00 L 798.90 1178.90 L 799.30 1174.70 L 799.40 1159.50 L 799.00 1144.20 L 798.00 1129.00 L 796.50 1113.80 L 794.40 1098.70 L 791.70 1083.70 L 788.50 1071.70 L 786.40 1065.90 L 783.70 1060.30 L 781.60 1056.80 L 779.00 1053.60 L 776.10 1050.70 L 773.70 1048.80 L 771.10 1047.40 L 768.40 1046.40 L 765.50 1045.70 L 759.50 1045.70 L 756.60 1046.20 L 751.10 1048.30 Z" fill="#020102" fill-rule="nonzero" node-id="76" stroke="none" target-height="1348" target-width="1340" target-x="0" target-y="0"/><path d="M 652.60 356.70 L 658.50 355.10 L 666.10 355.00 L 670.60 355.50 L 673.30 356.40 L 677.90 359.20 L 680.90 362.00 L 683.50 365.20 L 687.50 372.30 L 689.50 376.80 L 691.00 381.40 L 692.10 386.20 L 692.70 391.00 L 692.90 395.90 L 692.70 400.80 L 691.20 410.40 L 688.30 419.00 L 684.40 426.40 L 679.30 433.00 L 671.80 440.40 L 666.90 444.30 L 663.60 446.50 L 656.70 449.90 L 649.30 452.10 L 641.60 453.00 L 633.90 452.40 L 630.30 451.20 L 627.00 449.60 L 623.90 447.60 L 621.10 445.20 L 618.50 442.50 L 616.30 439.50 L 614.50 436.30 L 613.10 432.90 L 612.10 429.30 L 611.20 420.50 L 611.80 411.60 L 613.70 402.90 L 615.90 396.50 L 618.70 390.40 L 624.00 381.00 L 630.70 372.30 L 634.40 368.40 L 638.50 364.80 L 642.90 361.60 L 647.60 358.90 L 652.60 356.70 Z" fill="#020102" fill-rule="nonzero" node-id="78" stroke="none" target-height="98" target-width="81.70001" target-x="611.2" target-y="355"/><path d="M 768.40 637.50 L 770.80 637.40 L 775.50 638.10 L 778.80 639.50 L 781.90 641.40 L 784.50 643.80 L 786.80 646.70 L 790.00 652.80 L 792.00 659.40 L 792.70 666.30 L 792.50 671.60 L 790.50 681.50 L 787.20 690.70 L 784.90 695.10 L 782.10 699.10 L 778.90 702.90 L 776.90 704.70 L 774.60 706.00 L 772.20 706.90 L 769.60 707.40 L 764.30 707.30 L 759.30 705.70 L 754.40 702.40 L 752.00 700.30 L 748.20 695.20 L 745.30 689.40 L 743.90 684.70 L 742.40 675.40 L 742.30 670.90 L 742.80 666.30 L 743.80 661.80 L 745.40 657.50 L 747.40 653.40 L 749.90 649.50 L 752.80 646.00 L 756.20 642.90 L 759.00 640.90 L 764.00 638.30 L 768.40 637.50 Z M 761.10 647.60 L 759.80 653.30 L 759.80 655.20 L 760.30 657.00 L 761.30 658.70 L 762.90 659.40 L 764.40 659.60 L 765.90 659.30 L 768.60 657.70 L 770.60 655.10 L 771.30 652.10 L 771.20 650.60 L 770.60 649.20 L 769.50 647.90 L 768.20 646.80 L 766.90 646.40 L 764.00 646.60 L 761.10 647.60 Z M 752.00 656.60 L 750.10 661.60 L 749.40 664.20 L 749.30 668.50 L 750.40 672.00 L 752.00 671.60 L 754.70 670.00 L 756.10 668.20 L 757.10 665.90 L 757.60 663.50 L 757.60 661.10 L 757.00 658.70 L 756.00 656.50 L 752.00 656.60 Z" fill="#020102" fill-rule="nonzero" node-id="80" stroke="none" target-height="70" target-width="50.400024" target-x="742.3" target-y="637.4"/><path d="M 932.60 663.70 L 939.50 663.00 L 946.50 663.70 L 953.00 665.80 L 956.10 667.40 L 958.90 669.50 L 964.60 675.20 L 967.20 678.80 L 969.40 682.60 L 971.20 686.70 L 972.50 690.90 L 973.40 695.30 L 973.80 699.80 L 973.80 704.20 L 973.40 708.70 L 972.50 713.10 L 971.20 717.30 L 969.40 721.40 L 967.20 725.30 L 964.60 728.90 L 959.20 734.50 L 953.80 738.30 L 947.80 740.90 L 941.40 742.20 L 934.80 742.10 L 930.60 741.20 L 926.60 739.80 L 922.80 737.90 L 919.20 735.60 L 916.00 732.90 L 913.00 729.90 L 910.40 726.50 L 908.20 722.90 L 906.30 719.00 L 904.80 715.00 L 903.90 710.90 L 903.30 706.70 L 903.30 701.60 L 903.80 696.60 L 904.90 691.60 L 906.50 686.80 L 908.70 682.20 L 911.30 677.90 L 914.00 674.50 L 917.10 671.50 L 920.70 668.90 L 924.50 666.80 L 928.40 665.00 L 932.60 663.70 Z M 923.30 678.00 L 921.80 678.50 L 920.70 679.30 L 919.30 681.70 L 919.00 684.60 L 919.90 687.40 L 921.80 689.50 L 923.00 690.10 L 925.80 690.20 L 928.50 689.90 L 929.60 688.80 L 930.80 686.00 L 930.90 683.60 L 930.50 681.40 L 929.80 680.10 L 927.90 678.20 L 926.60 677.70 L 925.10 677.60 L 923.30 678.00 Z M 910.60 689.60 L 909.30 693.60 L 908.30 700.50 L 908.70 706.10 L 909.20 707.20 L 910.60 708.40 L 912.00 708.70 L 913.50 708.60 L 916.40 707.30 L 917.50 706.20 L 918.30 704.90 L 919.00 702.80 L 919.30 700.70 L 919.10 698.60 L 918.50 696.50 L 916.10 692.90 L 914.50 691.50 L 910.60 689.60 Z" fill="#020102" fill-rule="nonzero" node-id="82" stroke="none" target-height="79.20001" target-width="70.5" target-x="903.3" target-y="663"/><path d="M 784.00 732.30 L 784.20 729.80 L 784.80 727.40 L 785.90 725.20 L 787.30 723.10 L 789.10 721.40 L 791.10 720.10 L 793.40 719.20 L 795.80 718.90 L 798.40 719.10 L 799.30 724.90 L 799.00 726.30 L 798.20 727.50 L 796.30 729.20 L 794.10 730.50 L 789.30 732.40 L 797.00 727.40 L 796.70 721.00 L 793.10 719.60 L 784.00 732.30 Z" fill="#020102" fill-rule="nonzero" node-id="84" stroke="none" target-height="13.5" target-width="15.299988" target-x="784" target-y="718.9"/><path d="M 837.10 741.30 L 842.30 741.80 L 844.90 742.40 L 847.20 743.60 L 848.90 745.10 L 851.40 748.70 L 853.60 755.00 L 848.40 747.30 L 845.30 743.90 L 837.10 741.30 Z" fill="#020102" fill-rule="nonzero" node-id="86" stroke="none" target-height="13.700012" target-width="16.5" target-x="837.1" target-y="741.3"/><path d="M 836.10 746.90 L 842.10 747.30 L 843.50 748.60 L 844.40 750.10 L 845.20 753.70 L 844.70 757.40 L 838.50 754.00 L 836.90 752.40 L 836.10 746.90 Z" fill="#020102" fill-rule="nonzero" node-id="88" stroke="none" target-height="10.5" target-width="9.100037" target-x="836.1" target-y="746.9"/><path d="M 842.00 143.60 L 846.50 142.50 L 851.00 141.90 L 860.20 141.50 L 874.30 141.60 L 884.00 142.90 L 888.80 144.20 L 895.00 146.30 L 900.90 149.10 L 906.60 152.40 L 910.60 155.20 L 918.00 161.70 L 925.00 169.90 L 931.60 179.70 L 935.80 188.50 L 937.80 196.00 L 938.10 199.40 L 937.90 202.70 L 937.10 205.80 L 935.90 208.90 L 934.30 211.80 L 932.40 214.50 L 930.20 216.90 L 925.00 221.00 L 921.00 223.20 L 916.70 224.70 L 912.20 225.90 L 900.90 227.90 L 887.20 229.10 L 880.20 229.10 L 873.40 228.70 L 866.50 227.90 L 859.70 226.60 L 853.10 224.90 L 841.40 220.90 L 836.40 218.80 L 831.70 216.30 L 824.80 212.10 L 818.20 207.30 L 811.90 202.20 L 803.70 194.50 L 799.90 189.20 L 798.60 186.30 L 797.90 182.20 L 798.40 177.30 L 799.20 174.80 L 800.40 172.40 L 802.70 169.20 L 808.50 163.50 L 826.10 150.90 L 834.60 146.20 L 842.00 143.60 Z" fill="#fdfdfd" fill-rule="nonzero" node-id="90" stroke="none" target-height="87.600006" target-width="140.19995" target-x="797.9" target-y="141.5"/><path d="M 475.00 148.70 L 486.70 145.70 L 492.70 144.80 L 498.70 144.30 L 504.70 144.20 L 510.70 144.70 L 513.50 145.50 L 518.70 147.90 L 521.10 149.60 L 523.10 151.60 L 524.70 154.00 L 526.10 157.00 L 527.00 160.10 L 528.30 166.60 L 528.90 184.00 L 528.60 192.60 L 527.70 205.60 L 526.30 218.50 L 519.10 274.80 L 517.60 290.10 L 516.00 313.00 L 514.00 349.80 L 513.60 370.50 L 513.10 377.30 L 512.90 402.00 L 513.00 426.70 L 513.70 445.10 L 513.90 463.60 L 514.30 519.10 L 515.10 537.60 L 516.00 549.80 L 517.40 562.10 L 519.20 574.30 L 525.70 611.70 L 528.50 630.50 L 530.90 649.30 L 531.30 659.20 L 531.10 669.30 L 530.60 676.00 L 529.60 682.60 L 528.30 689.10 L 526.40 695.50 L 524.00 701.70 L 521.00 707.70 L 518.20 711.60 L 514.90 715.30 L 511.30 718.60 L 507.40 721.40 L 501.60 724.10 L 498.50 724.90 L 496.60 725.10 L 495.00 724.90 L 493.50 724.30 L 491.10 722.10 L 489.20 718.20 L 488.80 715.70 L 488.50 688.40 L 488.10 679.30 L 487.50 673.30 L 486.50 667.30 L 485.00 661.40 L 483.00 657.30 L 482.00 656.20 L 480.30 655.50 L 479.20 655.50 L 477.30 657.10 L 475.80 659.10 L 474.00 663.90 L 472.80 668.80 L 471.80 674.80 L 471.00 686.90 L 471.20 696.00 L 471.80 705.10 L 475.00 734.60 L 475.60 746.00 L 475.30 761.30 L 474.60 768.90 L 473.40 776.40 L 471.70 783.80 L 469.50 791.10 L 465.60 800.00 L 463.80 802.70 L 461.60 805.10 L 459.10 807.10 L 454.30 807.80 L 449.70 807.10 L 446.80 805.90 L 444.10 804.30 L 441.60 802.20 L 437.50 797.30 L 434.00 790.00 L 432.30 785.30 L 429.40 773.10 L 426.40 750.80 L 424.80 728.30 L 421.60 660.80 L 417.50 612.90 L 414.00 564.80 L 412.90 540.80 L 412.40 516.70 L 408.20 515.70 L 406.10 515.50 L 404.00 515.80 L 396.80 517.50 L 389.70 519.60 L 376.10 525.00 L 362.90 531.50 L 353.30 536.90 L 325.40 554.70 L 323.80 555.90 L 322.60 557.40 L 321.90 559.80 L 322.30 589.20 L 322.20 617.30 L 321.60 645.30 L 321.00 654.40 L 320.30 681.60 L 319.60 691.20 L 318.80 720.00 L 316.30 774.40 L 311.00 865.20 L 310.40 881.10 L 310.30 897.10 L 311.10 918.30 L 312.00 928.90 L 313.20 936.90 L 319.60 969.00 L 320.60 977.10 L 320.80 987.90 L 320.30 993.40 L 319.40 996.80 L 316.80 1003.40 L 313.40 1008.00 L 309.70 1010.80 L 307.10 1011.80 L 304.50 1012.40 L 301.80 1012.60 L 297.80 1012.20 L 293.70 1011.40 L 286.00 1008.80 L 283.30 1007.50 L 280.90 1005.80 L 277.00 1001.40 L 274.10 996.10 L 271.20 987.70 L 269.90 981.00 L 269.10 974.20 L 268.80 967.50 L 269.20 954.00 L 271.20 937.00 L 275.20 913.70 L 277.20 900.30 L 278.80 886.80 L 280.50 864.30 L 280.50 846.20 L 279.80 832.60 L 278.50 819.00 L 276.70 805.50 L 267.30 748.20 L 264.30 726.20 L 261.60 704.10 L 259.40 704.60 L 257.70 709.90 L 255.30 720.80 L 253.20 737.30 L 252.70 745.80 L 252.90 779.90 L 252.50 788.40 L 250.80 797.60 L 249.50 802.20 L 247.60 806.40 L 246.00 809.00 L 244.00 811.40 L 241.60 813.50 L 237.20 816.20 L 234.70 817.10 L 232.30 817.60 L 229.00 817.20 L 227.30 816.50 L 223.10 813.80 L 219.20 810.60 L 216.80 808.20 L 212.70 802.90 L 209.70 796.90 L 208.60 793.70 L 206.90 786.70 L 205.70 779.60 L 204.90 772.40 L 203.70 750.70 L 204.90 714.70 L 207.10 666.40 L 207.30 654.20 L 206.60 629.80 L 205.40 605.30 L 199.90 524.60 L 197.90 497.80 L 193.00 444.10 L 189.70 402.70 L 186.70 361.30 L 186.20 350.00 L 186.00 304.70 L 185.50 287.30 L 185.90 281.50 L 186.90 275.60 L 188.50 269.90 L 190.50 264.40 L 193.00 258.90 L 195.90 253.70 L 202.50 243.90 L 210.40 234.90 L 218.90 226.20 L 224.80 220.80 L 231.00 215.70 L 237.50 211.00 L 247.80 204.90 L 253.20 202.40 L 263.90 198.60 L 274.30 196.10 L 279.60 195.60 L 283.10 195.60 L 286.60 196.10 L 290.10 197.00 L 292.30 198.00 L 295.80 201.10 L 297.80 203.90 L 300.80 210.50 L 302.00 213.80 L 303.70 220.70 L 306.20 234.70 L 307.40 248.90 L 308.30 266.70 L 309.00 309.30 L 311.70 349.50 L 312.50 358.30 L 313.80 382.30 L 314.20 395.00 L 315.70 417.10 L 317.20 424.90 L 319.60 424.70 L 324.00 423.20 L 352.90 407.50 L 360.60 403.70 L 371.10 399.40 L 381.80 396.30 L 386.90 395.30 L 400.10 394.00 L 408.10 393.90 L 408.60 389.50 L 408.60 385.20 L 407.60 368.00 L 407.80 334.70 L 408.20 328.90 L 409.00 305.80 L 411.70 256.50 L 412.80 242.10 L 415.20 222.90 L 418.00 207.20 L 420.90 195.10 L 423.00 189.30 L 426.60 181.90 L 428.90 178.40 L 432.90 173.60 L 437.20 169.20 L 441.90 165.20 L 446.90 161.50 L 452.20 158.30 L 463.40 152.80 L 475.00 148.70 Z" fill="#fdfdfd" fill-rule="nonzero" node-id="92" stroke="none" target-height="868.39996" target-width="345.8" target-x="185.5" target-y="144.2"/><path d="M 847.10 250.80 L 856.60 249.80 L 866.30 250.30 L 875.70 252.30 L 884.70 255.60 L 889.00 257.80 L 891.40 259.30 L 893.40 261.10 L 895.20 263.20 L 897.80 267.90 L 899.80 274.60 L 900.40 278.60 L 900.70 285.90 L 900.10 300.40 L 898.00 322.10 L 892.10 369.30 L 890.30 390.70 L 889.90 402.60 L 890.00 414.50 L 890.50 426.40 L 892.70 450.10 L 894.50 462.20 L 896.70 474.20 L 901.70 498.10 L 905.30 517.30 L 906.10 523.80 L 906.30 532.50 L 905.90 536.80 L 904.80 540.00 L 903.20 543.00 L 901.80 544.70 L 900.10 546.10 L 898.10 547.20 L 895.20 548.20 L 892.30 548.50 L 886.30 547.90 L 880.60 546.20 L 877.20 544.60 L 874.10 542.70 L 871.30 540.30 L 867.50 536.30 L 864.10 531.90 L 858.20 523.30 L 852.70 514.50 L 847.60 505.40 L 842.90 496.10 L 838.50 486.60 L 834.60 477.00 L 831.20 467.10 L 828.10 457.20 L 825.30 446.20 L 821.00 423.90 L 813.90 379.10 L 811.80 362.20 L 810.10 345.30 L 809.80 326.10 L 810.20 316.50 L 811.10 306.90 L 812.10 300.60 L 815.10 288.20 L 817.10 282.20 L 819.60 276.30 L 824.30 267.40 L 828.70 261.70 L 834.10 256.90 L 840.30 253.20 L 847.10 250.80 Z" fill="#fdfdfd" fill-rule="nonzero" node-id="94" stroke="none" target-height="298.7" target-width="96.5" target-x="809.8" target-y="249.8"/><path d="M 633.10 272.90 L 641.00 269.50 L 649.00 266.50 L 657.20 264.00 L 665.50 262.00 L 673.90 260.50 L 682.40 259.50 L 690.90 259.10 L 699.50 259.30 L 708.00 260.10 L 713.90 261.20 L 719.60 262.90 L 725.20 265.10 L 730.50 267.80 L 735.50 271.00 L 740.20 274.70 L 744.50 278.80 L 748.40 283.30 L 751.80 288.30 L 754.90 293.70 L 757.70 299.40 L 760.00 305.10 L 763.00 314.00 L 765.30 323.10 L 767.20 332.30 L 771.30 360.20 L 780.40 440.00 L 781.80 449.90 L 786.50 474.40 L 797.80 526.00 L 798.20 529.90 L 798.10 533.90 L 781.20 548.20 L 773.10 555.70 L 765.20 563.70 L 759.80 568.80 L 758.70 562.10 L 758.20 555.30 L 757.20 534.90 L 756.20 528.20 L 754.10 530.40 L 752.40 532.90 L 750.10 538.40 L 747.00 549.50 L 746.20 554.80 L 745.40 568.20 L 745.70 592.50 L 739.40 604.70 L 736.90 610.40 L 734.90 616.30 L 732.10 628.30 L 729.70 624.70 L 725.90 617.20 L 723.70 611.20 L 721.90 605.10 L 720.60 598.80 L 718.70 585.00 L 718.20 577.40 L 717.80 547.10 L 714.40 523.20 L 712.70 515.40 L 710.70 507.60 L 708.10 500.00 L 705.10 501.20 L 699.60 504.60 L 692.10 510.70 L 684.70 517.50 L 670.80 531.90 L 661.00 543.20 L 651.60 554.80 L 642.50 566.80 L 627.00 588.60 L 620.70 598.60 L 616.80 605.50 L 613.30 612.60 L 610.20 619.80 L 606.60 630.90 L 604.60 642.60 L 604.10 655.50 L 604.10 668.40 L 604.60 681.30 L 606.60 699.50 L 607.00 705.60 L 606.90 709.60 L 606.40 713.60 L 605.50 717.60 L 604.40 720.60 L 601.20 726.40 L 599.20 728.80 L 596.80 730.90 L 593.90 732.50 L 591.10 732.60 L 588.30 732.30 L 585.60 731.40 L 583.00 730.00 L 580.70 728.40 L 578.70 726.30 L 577.00 724.00 L 575.90 721.40 L 575.30 718.60 L 575.00 712.90 L 575.50 701.50 L 576.70 695.40 L 582.00 677.50 L 583.60 671.50 L 584.50 665.40 L 584.40 657.60 L 583.80 653.70 L 581.70 646.20 L 580.20 642.60 L 577.50 637.40 L 574.30 632.50 L 569.00 625.30 L 552.50 604.40 L 547.30 597.20 L 542.60 589.60 L 540.00 584.10 L 537.70 578.60 L 535.80 572.90 L 533.50 564.20 L 531.80 555.30 L 530.50 546.30 L 528.50 526.00 L 527.60 514.70 L 526.90 486.40 L 527.10 469.30 L 527.70 457.80 L 528.70 446.20 L 530.10 434.70 L 531.90 423.20 L 534.20 411.70 L 536.90 400.40 L 540.20 389.30 L 544.00 378.30 L 547.30 369.70 L 551.10 361.20 L 555.20 352.90 L 559.80 344.80 L 564.70 336.80 L 570.60 328.10 L 576.90 319.70 L 583.60 311.50 L 594.50 300.00 L 606.30 289.60 L 612.60 284.80 L 619.20 280.50 L 626.00 276.50 L 633.10 272.90 Z M 652.60 356.70 L 647.60 358.90 L 642.90 361.60 L 638.50 364.80 L 634.40 368.40 L 630.70 372.30 L 624.00 381.00 L 618.70 390.40 L 615.90 396.50 L 613.70 402.90 L 611.80 411.60 L 611.20 420.50 L 612.10 429.30 L 613.10 432.90 L 614.50 436.30 L 616.30 439.50 L 618.50 442.50 L 621.10 445.20 L 623.90 447.60 L 627.00 449.60 L 630.30 451.20 L 633.90 452.40 L 637.70 452.90 L 645.40 452.70 L 653.00 451.20 L 660.30 448.30 L 666.90 444.30 L 671.80 440.40 L 676.40 436.10 L 682.00 429.80 L 686.50 422.80 L 689.80 415.10 L 692.10 405.60 L 692.90 395.90 L 692.70 391.00 L 692.10 386.20 L 691.00 381.40 L 689.50 376.80 L 685.70 368.70 L 683.50 365.20 L 680.90 362.00 L 677.90 359.20 L 675.70 357.60 L 670.60 355.50 L 661.50 354.90 L 658.50 355.10 L 652.60 356.70 Z" fill="#fdfdfd" fill-rule="nonzero" node-id="96" stroke="none" target-height="473.49997" target-width="271.3" target-x="526.9" target-y="259.1"/><path d="M 914.90 504.50 L 924.80 504.40 L 934.60 504.60 L 944.40 505.20 L 954.20 506.30 L 964.00 507.70 L 973.70 509.60 L 983.20 511.80 L 992.70 514.50 L 1002.00 517.50 L 1011.30 521.00 L 1020.40 524.90 L 1029.20 529.10 L 1037.90 533.70 L 1046.40 538.70 L 1054.60 544.10 L 1061.70 549.30 L 1068.60 554.70 L 1075.20 560.50 L 1087.50 572.90 L 1098.70 586.40 L 1103.80 593.50 L 1108.60 600.90 L 1113.00 608.40 L 1120.80 624.10 L 1124.20 632.20 L 1127.10 640.40 L 1129.60 648.80 L 1133.60 665.60 L 1136.00 682.40 L 1136.60 690.80 L 1136.80 707.70 L 1135.60 724.60 L 1132.80 741.30 L 1128.60 757.60 L 1125.90 765.60 L 1122.90 773.50 L 1119.40 781.20 L 1115.60 788.80 L 1111.00 797.10 L 1106.00 805.10 L 1100.50 812.80 L 1094.50 820.20 L 1088.20 827.30 L 1081.50 834.00 L 1074.50 840.30 L 1067.00 846.20 L 1059.30 851.60 L 1051.30 856.60 L 1043.00 861.20 L 1034.40 865.20 L 1024.40 869.30 L 1014.20 872.90 L 1003.90 875.90 L 993.40 878.30 L 982.80 880.10 L 968.10 881.70 L 956.20 882.30 L 948.30 883.30 L 948.50 887.80 L 952.40 888.70 L 960.00 889.50 L 965.90 889.40 L 983.30 888.40 L 985.60 894.40 L 988.20 900.20 L 991.30 905.70 L 998.70 916.00 L 1002.80 920.90 L 1011.80 929.90 L 1021.90 938.70 L 1027.50 942.80 L 1039.40 950.40 L 1033.30 950.10 L 1027.30 949.20 L 1009.30 945.80 L 999.30 944.70 L 991.20 945.10 L 993.90 948.30 L 1006.90 952.60 L 1018.60 955.80 L 1026.50 957.50 L 1034.50 958.80 L 1048.90 960.30 L 1074.40 960.40 L 1080.80 960.70 L 1082.70 962.60 L 1084.10 964.70 L 1085.10 967.10 L 1086.10 970.80 L 1086.40 974.80 L 1086.50 988.80 L 1086.00 994.90 L 1085.10 1000.90 L 1083.80 1006.90 L 1081.50 1014.70 L 1078.60 1022.30 L 1075.10 1029.60 L 1071.40 1035.90 L 1067.20 1041.90 L 1062.50 1047.50 L 1057.30 1052.80 L 1051.80 1057.50 L 1045.90 1061.80 L 1041.20 1064.60 L 1031.30 1069.30 L 1026.10 1071.20 L 1019.40 1073.00 L 1012.50 1074.50 L 1005.60 1075.40 L 998.70 1075.70 L 985.60 1075.60 L 977.00 1074.70 L 966.90 1071.80 L 961.20 1069.50 L 955.70 1066.90 L 950.30 1063.90 L 943.50 1059.50 L 936.90 1054.60 L 930.70 1049.30 L 926.00 1044.50 L 921.70 1039.40 L 917.80 1033.90 L 914.30 1028.10 L 911.30 1022.10 L 908.90 1015.80 L 907.60 1011.00 L 906.60 1006.10 L 906.10 1001.10 L 905.90 990.80 L 906.30 985.60 L 907.10 980.40 L 908.40 975.30 L 910.10 970.40 L 916.30 957.20 L 917.00 955.00 L 917.30 952.60 L 913.80 954.70 L 910.60 957.30 L 907.90 960.30 L 905.60 963.60 L 903.50 967.20 L 901.80 971.00 L 899.80 976.90 L 898.30 982.80 L 897.40 996.00 L 897.70 1002.70 L 898.40 1009.30 L 899.30 1013.60 L 901.90 1022.10 L 904.40 1027.70 L 907.20 1033.10 L 910.30 1038.30 L 913.80 1043.30 L 918.90 1049.60 L 924.50 1055.50 L 930.60 1061.00 L 937.10 1065.90 L 943.80 1070.40 L 950.90 1074.40 L 956.70 1077.30 L 962.70 1079.80 L 968.80 1081.80 L 975.10 1083.40 L 981.50 1084.30 L 988.00 1084.80 L 1002.10 1084.50 L 1009.10 1083.80 L 1016.10 1082.60 L 1023.00 1081.10 L 1029.70 1079.10 L 1036.40 1076.70 L 1042.80 1073.80 L 1049.00 1070.40 L 1059.30 1062.60 L 1064.20 1058.20 L 1068.70 1053.60 L 1073.00 1048.70 L 1076.90 1043.50 L 1080.50 1038.10 L 1083.70 1032.50 L 1086.50 1026.60 L 1091.00 1014.10 L 1092.80 1007.60 L 1094.10 1001.00 L 1095.00 994.40 L 1095.40 987.80 L 1095.30 981.10 L 1094.60 974.50 L 1093.40 967.90 L 1091.40 962.00 L 1090.10 959.10 L 1088.40 956.60 L 1085.30 953.90 L 1083.40 953.00 L 1079.50 952.00 L 1075.50 951.60 L 1059.50 951.80 L 1051.60 951.00 L 1033.20 937.60 L 1024.40 930.50 L 1015.80 923.00 L 1035.00 923.90 L 1044.60 924.00 L 1054.10 923.60 L 1066.70 922.00 L 1073.00 920.70 L 1078.40 918.90 L 1083.70 916.80 L 1090.30 913.00 L 1093.30 910.60 L 1095.20 908.50 L 1098.10 903.80 L 1101.00 896.00 L 1105.00 896.60 L 1108.90 897.80 L 1112.50 899.60 L 1116.00 901.90 L 1119.10 904.40 L 1122.00 907.40 L 1126.20 912.70 L 1129.80 918.40 L 1133.00 924.40 L 1135.60 930.60 L 1137.80 937.00 L 1140.60 949.50 L 1143.60 967.30 L 1148.60 969.10 L 1146.70 974.70 L 1144.20 980.10 L 1139.50 988.40 L 1138.30 991.70 L 1137.60 995.20 L 1136.30 1005.90 L 1134.60 1015.70 L 1132.40 1025.30 L 1129.80 1034.80 L 1126.80 1044.30 L 1119.70 1062.80 L 1111.50 1080.80 L 1107.00 1089.60 L 1100.70 1100.50 L 1093.80 1111.10 L 1088.80 1117.90 L 1083.50 1124.40 L 1077.80 1130.50 L 1073.20 1134.80 L 1068.40 1138.80 L 1063.20 1142.50 L 1057.80 1145.80 L 1050.30 1149.90 L 1042.50 1153.50 L 1034.60 1156.70 L 1022.60 1161.00 L 1010.30 1164.60 L 985.40 1170.80 L 958.30 1176.00 L 931.00 1179.50 L 917.30 1180.70 L 903.50 1181.50 L 889.80 1181.90 L 876.00 1181.90 L 861.80 1180.60 L 826.90 1176.30 L 820.40 1176.30 L 807.40 1177.30 L 807.70 1160.40 L 807.50 1143.60 L 815.30 1141.80 L 819.10 1140.40 L 822.80 1138.70 L 829.70 1134.50 L 835.70 1129.20 L 838.40 1126.10 L 839.50 1123.90 L 839.10 1121.80 L 837.40 1120.10 L 832.10 1125.70 L 829.00 1128.20 L 822.40 1132.20 L 815.10 1134.80 L 811.30 1135.50 L 807.40 1135.80 L 805.50 1115.20 L 802.60 1094.50 L 800.60 1084.40 L 797.90 1074.40 L 795.70 1067.80 L 793.20 1061.40 L 788.40 1051.90 L 786.30 1049.00 L 783.80 1046.50 L 780.90 1044.30 L 777.90 1042.50 L 774.60 1041.10 L 771.10 1040.10 L 767.60 1039.60 L 764.00 1039.50 L 757.10 1040.40 L 749.30 1043.30 L 731.30 1053.20 L 726.60 1055.20 L 727.30 1050.50 L 728.40 1045.80 L 734.80 1023.40 L 739.20 1010.30 L 742.50 1001.70 L 746.20 993.30 L 750.30 985.00 L 756.40 975.50 L 769.40 957.00 L 815.40 896.80 L 821.30 888.20 L 826.70 879.20 L 840.80 882.50 L 858.60 885.00 L 873.00 885.90 L 880.30 885.10 L 883.80 884.20 L 878.60 882.60 L 857.00 878.50 L 840.80 875.00 L 830.10 872.20 L 819.50 869.00 L 809.10 865.40 L 801.50 862.30 L 786.60 855.20 L 779.40 851.10 L 797.60 851.30 L 802.20 851.00 L 811.30 849.40 L 829.40 844.00 L 849.60 839.80 L 865.00 835.90 L 872.50 833.40 L 885.20 827.80 L 890.40 824.90 L 895.30 821.50 L 899.90 817.70 L 905.20 811.90 L 907.50 808.70 L 909.60 804.20 L 911.20 799.70 L 912.10 794.90 L 912.50 790.00 L 912.40 785.20 L 911.70 780.30 L 910.50 775.50 L 908.80 771.00 L 906.60 766.70 L 902.50 761.20 L 896.20 755.70 L 883.70 746.90 L 877.20 741.30 L 874.30 738.20 L 861.90 723.20 L 853.50 714.70 L 849.20 711.30 L 844.60 708.20 L 839.80 705.50 L 834.80 703.20 L 829.60 701.40 L 824.30 700.10 L 818.90 699.30 L 813.30 699.10 L 807.90 699.30 L 802.50 700.10 L 795.50 702.20 L 789.20 705.60 L 786.30 707.80 L 783.80 710.40 L 775.30 720.60 L 770.30 724.80 L 765.50 727.80 L 760.50 730.30 L 755.30 732.40 L 747.30 734.80 L 719.10 741.20 L 715.80 742.50 L 712.60 744.20 L 708.10 747.20 L 703.80 750.60 L 703.30 743.60 L 703.20 736.50 L 703.50 731.80 L 704.10 727.10 L 706.20 718.60 L 709.10 711.30 L 711.90 706.00 L 715.10 701.00 L 725.80 686.50 L 729.10 681.20 L 732.50 673.70 L 733.60 669.70 L 735.50 660.30 L 739.90 631.80 L 741.30 625.10 L 743.20 618.60 L 745.60 612.20 L 748.40 606.00 L 754.90 594.00 L 760.50 585.40 L 766.50 577.20 L 773.50 568.90 L 780.90 561.10 L 788.70 553.70 L 796.80 546.70 L 803.70 541.40 L 810.70 536.40 L 818.00 531.80 L 825.40 527.60 L 837.50 521.70 L 842.10 520.40 L 844.00 522.90 L 848.90 531.00 L 852.90 536.90 L 857.40 542.70 L 864.10 549.60 L 867.80 552.60 L 871.70 555.30 L 875.90 557.60 L 880.40 559.40 L 888.50 561.60 L 892.70 562.10 L 896.80 562.10 L 902.20 560.80 L 904.70 559.60 L 907.70 557.70 L 910.30 555.40 L 912.50 552.80 L 914.30 549.90 L 915.80 546.90 L 917.80 540.20 L 918.30 533.30 L 917.90 523.70 L 914.90 504.50 Z M 768.40 637.50 L 764.00 638.30 L 759.00 640.90 L 756.20 642.90 L 752.80 646.00 L 749.90 649.50 L 747.40 653.40 L 745.40 657.50 L 743.80 661.80 L 742.80 666.30 L 742.30 670.90 L 742.40 675.40 L 743.90 684.70 L 745.30 689.40 L 748.20 695.20 L 752.00 700.30 L 754.40 702.40 L 757.10 704.40 L 761.70 706.70 L 767.00 707.60 L 772.20 706.90 L 774.60 706.00 L 776.90 704.70 L 778.90 702.90 L 782.10 699.10 L 784.90 695.10 L 787.20 690.70 L 790.50 681.50 L 792.50 671.60 L 792.70 666.30 L 792.00 659.40 L 790.00 652.80 L 786.80 646.70 L 784.50 643.80 L 781.90 641.40 L 778.80 639.50 L 775.50 638.10 L 770.80 637.40 L 768.40 637.50 Z M 932.60 663.70 L 928.40 665.00 L 924.50 666.80 L 920.70 668.90 L 917.10 671.50 L 914.00 674.50 L 911.30 677.90 L 908.70 682.20 L 906.50 686.80 L 904.90 691.60 L 903.80 696.60 L 903.30 701.60 L 903.30 706.70 L 903.90 710.90 L 904.80 715.00 L 906.30 719.00 L 908.20 722.90 L 910.40 726.50 L 913.00 729.90 L 916.00 732.90 L 919.20 735.60 L 922.80 737.90 L 926.60 739.80 L 930.60 741.20 L 934.80 742.10 L 938.10 742.30 L 944.60 741.70 L 950.90 739.80 L 956.60 736.60 L 961.60 732.20 L 964.60 728.90 L 967.20 725.30 L 969.40 721.40 L 971.20 717.30 L 972.50 713.10 L 973.40 708.70 L 973.80 704.20 L 973.80 699.80 L 973.40 695.30 L 972.50 690.90 L 971.20 686.70 L 969.40 682.60 L 967.20 678.80 L 964.60 675.20 L 958.90 669.50 L 956.10 667.40 L 953.00 665.80 L 946.50 663.70 L 939.50 663.00 L 932.60 663.70 Z M 717.90 707.30 L 714.00 709.90 L 712.30 711.70 L 709.90 715.90 L 708.80 720.60 L 708.70 722.90 L 709.10 725.20 L 709.80 727.50 L 711.00 729.50 L 712.60 731.40 L 714.60 733.10 L 716.70 734.30 L 719.10 735.20 L 721.50 735.60 L 724.00 735.70 L 729.00 734.80 L 733.60 732.60 L 735.60 731.10 L 738.80 727.40 L 739.90 725.20 L 740.50 722.80 L 740.70 720.20 L 740.40 717.50 L 739.60 715.10 L 738.40 713.00 L 736.80 711.10 L 734.90 709.50 L 730.30 707.20 L 725.30 706.20 L 722.70 706.20 L 717.90 707.30 Z M 967.20 757.00 L 960.00 759.20 L 956.60 760.80 L 953.30 762.70 L 950.40 765.10 L 947.90 767.80 L 945.60 771.80 L 944.60 776.40 L 944.80 781.00 L 946.20 785.30 L 949.20 789.80 L 951.30 792.10 L 953.60 794.10 L 957.40 796.60 L 961.60 798.60 L 965.90 800.20 L 970.30 801.40 L 974.60 802.00 L 983.10 802.30 L 987.40 801.90 L 991.50 801.00 L 998.20 798.40 L 1003.00 795.10 L 1007.00 790.80 L 1008.50 788.40 L 1009.60 785.80 L 1010.20 783.00 L 1010.20 777.40 L 1009.80 774.90 L 1008.90 772.50 L 1006.30 768.20 L 1001.70 763.70 L 998.60 761.50 L 992.10 758.50 L 988.60 757.50 L 983.40 756.60 L 978.00 756.30 L 967.20 757.00 Z" fill="#fdfdfd" fill-rule="nonzero" node-id="98" stroke="none" target-height="677.5" target-width="445.39996" target-x="703.2" target-y="504.4"/><path d="M 761.10 647.60 L 765.50 646.30 L 766.90 646.40 L 768.20 646.80 L 770.60 649.20 L 771.20 650.60 L 771.10 653.60 L 769.70 656.50 L 767.30 658.70 L 764.40 659.60 L 762.90 659.40 L 761.30 658.70 L 760.30 657.00 L 759.80 655.20 L 760.10 651.40 L 761.10 647.60 Z" fill="#fdfdfd" fill-rule="nonzero" node-id="100" stroke="none" target-height="13.299988" target-width="11.400024" target-x="759.8" target-y="646.3"/><path d="M 752.00 656.60 L 756.00 656.50 L 757.00 658.70 L 757.60 661.10 L 757.60 663.50 L 757.10 665.90 L 756.10 668.20 L 754.70 670.00 L 752.00 671.60 L 750.40 672.00 L 749.30 668.50 L 749.40 664.20 L 750.10 661.60 L 752.00 656.60 Z" fill="#fdfdfd" fill-rule="nonzero" node-id="102" stroke="none" target-height="15.5" target-width="8.299988" target-x="749.3" target-y="656.5"/><path d="M 923.30 678.00 L 925.10 677.60 L 926.60 677.70 L 927.90 678.20 L 929.80 680.10 L 930.50 681.40 L 930.90 683.60 L 930.80 686.00 L 929.60 688.80 L 928.50 689.90 L 925.80 690.20 L 923.00 690.10 L 921.80 689.50 L 919.90 687.40 L 919.00 684.60 L 919.30 681.70 L 920.70 679.30 L 921.80 678.50 L 923.30 678.00 Z" fill="#fdfdfd" fill-rule="nonzero" node-id="104" stroke="none" target-height="12.600037" target-width="11.900024" target-x="919" target-y="677.6"/><path d="M 910.60 689.60 L 914.50 691.50 L 917.50 694.60 L 919.10 698.60 L 919.30 700.70 L 919.00 702.80 L 917.50 706.20 L 915.00 708.10 L 913.50 708.60 L 912.00 708.70 L 910.60 708.40 L 909.20 707.20 L 908.70 706.10 L 908.30 700.50 L 909.30 693.60 L 910.60 689.60 Z" fill="#fdfdfd" fill-rule="nonzero" node-id="106" stroke="none" target-height="19.100037" target-width="11" target-x="908.3" target-y="689.6"/><path d="M 716.90 804.90 L 723.10 800.00 L 736.10 791.10 L 757.90 778.40 L 760.60 778.00 L 762.70 778.30 L 769.10 779.90 L 760.80 784.90 L 747.90 791.80 L 733.70 801.10 L 724.10 808.20 L 714.80 815.80 L 708.00 821.90 L 701.60 828.20 L 695.50 834.80 L 689.70 841.70 L 684.60 848.30 L 670.60 869.10 L 665.50 867.90 L 670.40 858.90 L 675.80 850.20 L 681.60 841.80 L 687.80 833.60 L 694.50 825.80 L 701.60 818.50 L 709.00 811.50 L 716.90 804.90 Z" fill="#fdfdfd" fill-rule="nonzero" node-id="108" stroke="none" target-height="91.099976" target-width="103.599976" target-x="665.5" target-y="778"/><path d="M 754.20 796.80 L 762.60 793.00 L 771.30 789.70 L 775.70 788.60 L 780.30 788.00 L 776.10 790.80 L 771.70 793.10 L 757.90 799.00 L 753.50 801.40 L 738.70 811.00 L 724.70 821.70 L 718.10 827.50 L 711.80 833.70 L 705.80 840.10 L 697.50 850.30 L 690.30 861.10 L 686.40 865.30 L 684.10 867.10 L 685.70 860.30 L 687.00 857.20 L 688.80 854.20 L 694.40 846.10 L 700.50 838.50 L 707.10 831.30 L 714.10 824.50 L 721.50 818.10 L 729.20 812.10 L 737.30 806.60 L 745.60 801.50 L 754.20 796.80 Z" fill="#fdfdfd" fill-rule="nonzero" node-id="110" stroke="none" target-height="79.099976" target-width="96.20001" target-x="684.1" target-y="788"/><path d="M 408.40 845.30 L 409.60 844.80 L 410.80 844.80 L 412.10 845.10 L 414.40 846.60 L 418.10 851.50 L 420.60 855.70 L 422.60 860.00 L 425.10 866.80 L 427.00 873.90 L 428.50 881.00 L 430.20 891.60 L 430.30 898.50 L 429.80 901.90 L 428.30 906.20 L 427.10 908.20 L 422.80 913.50 L 420.20 915.70 L 417.30 917.30 L 415.30 918.10 L 413.10 918.40 L 410.80 918.40 L 408.90 918.20 L 407.30 917.50 L 404.40 915.40 L 402.00 912.70 L 399.90 909.40 L 398.40 905.90 L 397.40 902.20 L 396.90 898.30 L 396.70 894.40 L 396.90 890.60 L 398.30 881.90 L 404.50 852.20 L 405.80 848.30 L 406.90 846.70 L 408.40 845.30 Z" fill="#fdfdfd" fill-rule="nonzero" node-id="112" stroke="none" target-height="73.60004" target-width="33.599976" target-x="396.7" target-y="844.8"/><path d="M 515.70 865.90 L 527.60 874.40 L 525.90 884.00 L 519.10 912.50 L 512.20 938.40 L 508.20 951.10 L 493.40 955.10 L 498.20 934.10 L 515.70 865.90 Z" fill="#fdfdfd" fill-rule="nonzero" node-id="114" stroke="none" target-height="89.19995" target-width="34.19998" target-x="493.4" target-y="865.9"/><path d="M 531.00 915.40 L 534.20 915.40 L 537.30 916.00 L 540.40 917.00 L 543.30 918.40 L 546.00 920.20 L 548.40 922.30 L 550.60 924.70 L 552.30 927.30 L 553.70 930.30 L 554.70 933.40 L 555.40 939.80 L 554.90 949.60 L 528.40 949.80 L 517.10 949.10 L 519.50 935.30 L 521.10 928.50 L 523.30 921.90 L 524.50 919.50 L 526.20 917.40 L 527.60 916.40 L 529.20 915.70 L 531.00 915.40 Z" fill="#fdfdfd" fill-rule="nonzero" node-id="116" stroke="none" target-height="34.399963" target-width="38.30005" target-x="517.1" target-y="915.4"/><path d="M 724.30 922.00 L 741.00 919.00 L 720.10 999.70 L 709.10 989.90 L 705.10 987.00 L 694.70 981.10 L 683.80 976.10 L 690.20 964.60 L 697.00 953.40 L 704.20 942.50 L 711.80 931.80 L 714.40 928.70 L 717.40 926.00 L 721.80 923.10 L 724.30 922.00 Z" fill="#fdfdfd" fill-rule="nonzero" node-id="118" stroke="none" target-height="80.70001" target-width="57.200012" target-x="683.8" target-y="919"/><path d="M 515.70 956.00 L 525.30 955.30 L 534.90 955.00 L 544.40 955.10 L 554.00 955.60 L 550.30 966.10 L 548.00 971.10 L 545.20 975.90 L 542.60 979.30 L 539.70 982.50 L 533.40 988.40 L 511.90 980.70 L 511.60 976.50 L 511.80 972.30 L 512.40 968.10 L 515.70 956.00 Z" fill="#fdfdfd" fill-rule="nonzero" node-id="120" stroke="none" target-height="33.400024" target-width="42.399994" target-x="511.6" target-y="955"/><path d="M 493.70 1007.00 L 495.20 1000.10 L 496.40 996.90 L 498.10 993.80 L 498.10 998.40 L 497.70 1002.90 L 497.00 1007.40 L 495.20 1014.00 L 493.10 1020.40 L 492.40 1018.20 L 492.20 1015.90 L 492.70 1011.40 L 493.70 1007.00 Z" fill="#fdfdfd" fill-rule="nonzero" node-id="122" stroke="none" target-height="26.600037" target-width="5.899994" target-x="492.2" target-y="993.8"/><path d="M 500.60 1021.30 L 501.40 1015.30 L 502.70 1009.30 L 506.20 997.70 L 516.00 999.30 L 520.90 1000.60 L 520.80 1008.60 L 520.20 1012.60 L 518.20 1018.80 L 515.40 1023.30 L 513.80 1024.50 L 512.20 1025.30 L 508.70 1025.50 L 505.20 1024.50 L 502.70 1023.10 L 500.60 1021.30 Z" fill="#fdfdfd" fill-rule="nonzero" node-id="124" stroke="none" target-height="27.799988" target-width="20.300018" target-x="500.6" target-y="997.7"/><path d="M 572.50 1025.70 L 574.20 1025.20 L 575.80 1025.10 L 577.50 1025.50 L 580.50 1027.20 L 582.60 1029.90 L 583.10 1031.50 L 583.10 1033.20 L 582.60 1034.70 L 580.80 1037.10 L 578.90 1038.40 L 576.80 1039.20 L 574.50 1039.50 L 572.40 1039.10 L 569.80 1037.70 L 568.80 1036.40 L 568.20 1032.20 L 568.50 1030.10 L 569.20 1028.20 L 570.00 1027.10 L 572.50 1025.70 Z" fill="#fdfdfd" fill-rule="nonzero" node-id="126" stroke="none" target-height="14.400024" target-width="14.899963" target-x="568.2" target-y="1025.1"/><path d="M 485.90 1036.30 L 486.80 1033.30 L 488.10 1030.40 L 489.80 1027.80 L 490.00 1031.60 L 489.60 1035.30 L 487.00 1047.60 L 485.60 1052.30 L 483.20 1056.60 L 483.30 1049.80 L 485.90 1036.30 Z" fill="#fdfdfd" fill-rule="nonzero" node-id="128" stroke="none" target-height="28.799927" target-width="6.799988" target-x="483.2" target-y="1027.8"/><path d="M 498.20 1031.40 L 502.80 1031.20 L 507.40 1031.80 L 509.40 1032.70 L 511.30 1034.20 L 512.20 1035.40 L 512.70 1036.70 L 512.70 1039.70 L 512.30 1042.70 L 510.10 1050.90 L 508.60 1054.90 L 506.60 1058.60 L 503.70 1060.50 L 500.00 1061.20 L 496.50 1060.70 L 494.90 1060.00 L 493.60 1058.90 L 492.50 1057.40 L 494.90 1044.30 L 498.20 1031.40 Z" fill="#fdfdfd" fill-rule="nonzero" node-id="130" stroke="none" target-height="30" target-width="20.200012" target-x="492.5" target-y="1031.2"/><path d="M 560.70 1063.30 L 564.50 1063.00 L 566.40 1063.40 L 568.10 1064.30 L 569.50 1065.50 L 570.60 1067.10 L 571.20 1068.60 L 571.20 1071.40 L 570.40 1073.50 L 568.90 1075.30 L 567.00 1076.60 L 564.90 1077.40 L 562.00 1077.40 L 559.20 1076.30 L 557.20 1074.30 L 556.40 1072.30 L 556.20 1070.10 L 556.50 1068.00 L 557.40 1066.00 L 558.20 1064.80 L 560.70 1063.30 Z" fill="#fdfdfd" fill-rule="nonzero" node-id="132" stroke="none" target-height="14.400024" target-width="15" target-x="556.2" target-y="1063"/><path d="M 476.60 1076.40 L 478.60 1067.40 L 480.90 1063.40 L 480.30 1071.30 L 476.70 1088.50 L 474.20 1092.90 L 474.40 1088.70 L 474.90 1084.60 L 476.60 1076.40 Z" fill="#fdfdfd" fill-rule="nonzero" node-id="134" stroke="none" target-height="29.5" target-width="6.6999817" target-x="474.2" target-y="1063.4"/><path d="M 488.60 1069.60 L 493.80 1069.00 L 496.50 1069.20 L 500.50 1070.50 L 503.20 1072.70 L 503.50 1076.50 L 503.30 1080.30 L 502.60 1084.10 L 501.00 1089.60 L 498.90 1094.90 L 496.90 1097.50 L 495.60 1098.30 L 493.40 1099.20 L 491.10 1099.40 L 488.70 1099.10 L 486.50 1098.10 L 485.30 1097.20 L 483.50 1094.50 L 484.00 1090.30 L 488.60 1069.60 Z" fill="#fdfdfd" fill-rule="nonzero" node-id="136" stroke="none" target-height="30.400024" target-width="20" target-x="483.5" target-y="1069"/><path d="M 472.40 1100.30 L 475.70 1100.80 L 475.10 1106.30 L 474.30 1108.90 L 472.80 1111.30 L 472.40 1105.80 L 472.40 1100.30 Z" fill="#fdfdfd" fill-rule="nonzero" node-id="138" stroke="none" target-height="11" target-width="3.3000183" target-x="472.4" target-y="1100.3"/><path d="M 548.70 1101.70 L 550.40 1101.00 L 552.30 1100.80 L 554.20 1101.10 L 556.00 1101.90 L 557.60 1103.00 L 558.80 1104.40 L 559.60 1106.20 L 559.80 1109.70 L 558.80 1112.30 L 557.30 1113.90 L 555.40 1115.00 L 553.30 1115.70 L 551.10 1115.80 L 548.30 1115.10 L 547.10 1114.30 L 546.00 1113.00 L 544.80 1110.00 L 544.90 1106.80 L 546.20 1103.90 L 548.70 1101.70 Z" fill="#fdfdfd" fill-rule="nonzero" node-id="140" stroke="none" target-height="15" target-width="15" target-x="544.8" target-y="1100.8"/><path d="M 487.20 1105.40 L 489.70 1104.80 L 493.00 1105.60 L 494.70 1106.70 L 496.20 1109.30 L 496.40 1110.80 L 496.30 1113.10 L 495.50 1115.30 L 494.20 1117.20 L 492.50 1118.60 L 489.70 1119.50 L 488.10 1119.40 L 485.60 1117.90 L 484.70 1116.80 L 483.80 1114.90 L 483.50 1112.80 L 483.60 1110.60 L 484.30 1108.50 L 486.00 1106.30 L 487.20 1105.40 Z" fill="#fdfdfd" fill-rule="nonzero" node-id="142" stroke="none" target-height="14.699951" target-width="12.899994" target-x="483.5" target-y="1104.8"/><path d="M 717.90 707.30 L 722.70 706.20 L 725.30 706.20 L 730.30 707.20 L 734.90 709.50 L 736.80 711.10 L 738.40 713.00 L 739.60 715.10 L 740.40 717.50 L 740.70 720.20 L 740.50 722.80 L 739.90 725.20 L 738.80 727.40 L 735.60 731.10 L 733.60 732.60 L 729.00 734.80 L 726.50 735.40 L 721.50 735.60 L 719.10 735.20 L 716.70 734.30 L 714.60 733.10 L 711.00 729.50 L 709.80 727.50 L 709.10 725.20 L 708.80 720.60 L 709.20 718.20 L 709.90 715.90 L 712.30 711.70 L 714.00 709.90 L 717.90 707.30 Z" fill="#e1ad74" fill-rule="nonzero" node-id="144" stroke="none" target-height="29.399963" target-width="31.900024" target-x="708.8" target-y="706.2"/><path d="M 792.00 712.00 L 795.70 710.10 L 799.60 708.70 L 803.60 707.80 L 811.90 707.40 L 816.10 707.60 L 821.20 708.50 L 826.30 709.70 L 831.20 711.40 L 836.00 713.50 L 840.70 716.00 L 845.00 718.90 L 849.10 722.10 L 856.90 730.00 L 868.00 743.60 L 871.90 747.80 L 880.20 754.70 L 888.40 760.20 L 894.80 765.20 L 899.10 770.30 L 901.90 775.70 L 902.80 778.60 L 903.60 783.00 L 903.90 787.60 L 903.70 792.30 L 903.10 796.80 L 902.20 800.00 L 900.90 803.00 L 897.10 808.40 L 892.30 813.00 L 888.30 816.00 L 884.00 818.60 L 878.90 821.10 L 868.20 825.40 L 851.60 830.30 L 834.80 834.00 L 837.80 828.50 L 848.20 812.80 L 858.90 813.00 L 864.20 812.90 L 869.50 812.30 L 876.20 810.40 L 879.50 808.90 L 883.10 806.60 L 886.50 803.70 L 890.20 799.30 L 891.50 796.80 L 892.50 794.20 L 893.00 791.40 L 892.90 788.40 L 889.30 786.90 L 886.20 792.30 L 881.90 797.00 L 876.80 800.50 L 871.00 802.90 L 863.90 804.10 L 860.00 804.40 L 852.00 803.90 L 844.00 803.00 L 834.70 800.60 L 823.50 796.20 L 796.50 782.40 L 780.50 775.40 L 772.20 772.50 L 763.80 770.20 L 755.30 768.40 L 748.90 767.50 L 742.40 767.10 L 735.90 767.10 L 729.30 767.60 L 721.90 769.20 L 718.30 770.40 L 715.00 772.00 L 713.00 773.40 L 711.30 775.20 L 709.80 777.30 L 711.20 779.10 L 713.90 779.60 L 719.30 779.00 L 726.20 777.60 L 733.10 776.60 L 742.40 776.20 L 747.10 776.50 L 732.10 786.00 L 714.60 798.10 L 712.60 798.50 L 711.50 797.90 L 706.70 791.70 L 704.80 788.30 L 703.20 784.70 L 700.90 777.30 L 700.80 774.30 L 701.10 771.40 L 701.80 768.60 L 704.20 763.40 L 708.80 757.60 L 712.00 754.70 L 714.90 752.50 L 721.20 749.40 L 726.20 747.80 L 748.00 743.10 L 754.00 741.30 L 759.90 739.00 L 764.20 737.00 L 772.10 732.00 L 775.70 728.90 L 778.60 726.20 L 786.20 717.30 L 788.90 714.50 L 792.00 712.00 Z M 784.00 732.30 L 793.10 719.60 L 796.70 721.00 L 797.00 727.40 L 789.30 732.40 L 794.10 730.50 L 796.30 729.20 L 798.20 727.50 L 799.00 726.30 L 799.30 724.90 L 798.40 719.10 L 795.80 718.90 L 793.40 719.20 L 791.10 720.10 L 789.10 721.40 L 787.30 723.10 L 785.90 725.20 L 784.80 727.40 L 784.20 729.80 L 784.00 732.30 Z M 837.10 741.30 L 845.30 743.90 L 848.40 747.30 L 853.60 755.00 L 851.40 748.70 L 848.90 745.10 L 847.20 743.60 L 844.90 742.40 L 842.30 741.80 L 837.10 741.30 Z M 836.10 746.90 L 836.90 752.40 L 838.50 754.00 L 840.50 755.30 L 844.70 757.40 L 845.10 755.50 L 845.00 751.90 L 844.40 750.10 L 843.50 748.60 L 842.10 747.30 L 836.10 746.90 Z" fill="#e1ad74" fill-rule="nonzero" node-id="146" stroke="none" target-height="126.599976" target-width="203.10004" target-x="700.8" target-y="707.4"/><path d="M 967.20 757.00 L 978.00 756.30 L 983.40 756.60 L 988.60 757.50 L 992.10 758.50 L 998.60 761.50 L 1001.70 763.70 L 1004.60 766.20 L 1007.70 770.30 L 1009.80 774.90 L 1010.20 777.40 L 1010.20 783.00 L 1009.60 785.80 L 1008.50 788.40 L 1005.20 793.10 L 1000.60 796.90 L 995.60 799.60 L 991.50 801.00 L 987.40 801.90 L 978.80 802.20 L 970.30 801.40 L 965.90 800.20 L 961.60 798.60 L 957.40 796.60 L 953.60 794.10 L 949.20 789.80 L 946.20 785.30 L 944.80 781.00 L 944.60 776.40 L 945.60 771.80 L 947.90 767.80 L 950.40 765.10 L 953.30 762.70 L 956.60 760.80 L 960.00 759.20 L 967.20 757.00 Z" fill="#e1ad74" fill-rule="nonzero" node-id="148" stroke="none" target-height="45.900024" target-width="65.60004" target-x="944.6" target-y="756.3"/><path d="M 554.00 955.60 L 575.60 957.40 L 586.40 958.60 L 597.20 960.40 L 594.70 973.60 L 591.60 986.60 L 590.90 991.90 L 591.00 993.60 L 591.50 995.20 L 592.60 996.70 L 594.70 998.40 L 597.10 999.60 L 599.60 1000.40 L 602.30 1000.70 L 605.00 1000.60 L 607.60 999.90 L 609.30 999.00 L 611.50 996.10 L 613.50 990.70 L 619.30 964.50 L 640.00 968.90 L 650.30 971.50 L 660.40 974.40 L 680.40 981.30 L 666.50 1002.20 L 663.50 1007.70 L 661.00 1013.40 L 681.80 1014.20 L 675.00 1015.00 L 668.20 1015.20 L 661.40 1014.90 L 639.10 1012.90 L 623.70 1011.00 L 608.40 1008.50 L 593.10 1005.50 L 578.00 1001.90 L 563.00 997.90 L 548.10 993.40 L 533.40 988.40 L 539.70 982.50 L 545.20 975.90 L 548.00 971.10 L 550.30 966.10 L 554.00 955.60 Z" fill="#e1ad74" fill-rule="nonzero" node-id="150" stroke="none" target-height="59.600037" target-width="148.39996" target-x="533.4" target-y="955.6"/><path d="M 589.00 1042.20 L 595.90 1018.90 L 599.00 1011.50 L 597.00 1022.20 L 590.90 1043.20 L 562.60 1145.30 L 560.40 1152.50 L 557.80 1159.50 L 558.60 1152.80 L 559.80 1147.20 L 569.10 1112.40 L 589.00 1042.20 Z" fill="#e1ad74" fill-rule="nonzero" node-id="152" stroke="none" target-height="148" target-width="41.200012" target-x="557.8" target-y="1011.5"/><path d="M 751.10 1048.30 L 756.60 1046.20 L 759.50 1045.70 L 765.50 1045.70 L 768.40 1046.40 L 771.10 1047.40 L 773.70 1048.80 L 776.10 1050.70 L 779.00 1053.60 L 781.60 1056.80 L 783.70 1060.30 L 786.40 1065.90 L 788.50 1071.70 L 791.70 1083.70 L 794.40 1098.70 L 796.50 1113.80 L 798.00 1129.00 L 799.00 1144.20 L 799.40 1159.50 L 799.30 1174.70 L 798.90 1178.90 L 798.00 1183.00 L 796.60 1187.00 L 794.60 1190.70 L 791.10 1195.10 L 785.30 1199.30 L 781.60 1201.30 L 777.60 1203.00 L 773.50 1204.30 L 769.30 1205.20 L 765.00 1205.70 L 760.70 1205.80 L 756.40 1205.40 L 747.00 1203.10 L 742.10 1201.30 L 737.40 1199.00 L 728.50 1193.30 L 718.40 1184.80 L 712.80 1179.20 L 707.50 1172.50 L 702.70 1165.50 L 689.20 1143.90 L 684.40 1136.90 L 677.40 1128.00 L 670.40 1120.60 L 660.50 1111.70 L 654.20 1105.40 L 661.80 1102.70 L 665.50 1101.00 L 668.80 1098.80 L 670.70 1097.00 L 672.30 1094.90 L 673.60 1092.40 L 675.00 1088.10 L 675.10 1082.80 L 671.40 1066.70 L 674.50 1065.70 L 680.90 1064.80 L 707.90 1064.90 L 713.60 1064.50 L 719.20 1063.70 L 724.80 1062.20 L 729.50 1060.50 L 734.00 1058.40 L 751.10 1048.30 Z" fill="#e1ad74" fill-rule="nonzero" node-id="154" stroke="none" target-height="160.1001" target-width="145.20001" target-x="654.2" target-y="1045.7"/><path d="M 575.30 756.70 L 581.90 755.80 L 588.60 755.20 L 602.00 755.30 L 610.90 756.30 L 619.70 757.80 L 628.40 759.90 L 637.00 762.50 L 645.40 765.70 L 653.60 769.30 L 663.70 774.40 L 668.60 777.20 L 673.30 780.50 L 649.20 769.60 L 643.00 767.10 L 628.80 762.90 L 620.70 761.20 L 612.50 760.00 L 604.30 759.20 L 596.10 759.00 L 587.80 759.30 L 579.70 760.20 L 571.60 761.80 L 563.60 763.90 L 558.50 765.70 L 553.60 767.80 L 548.90 770.40 L 544.30 773.30 L 540.10 776.60 L 536.10 780.20 L 532.50 784.20 L 529.40 788.50 L 524.50 797.40 L 522.90 801.80 L 521.70 806.30 L 519.00 820.20 L 516.70 828.00 L 515.80 832.40 L 513.90 835.20 L 510.00 838.60 L 509.80 834.20 L 510.20 829.90 L 511.10 825.60 L 516.20 806.40 L 518.30 800.00 L 520.80 793.80 L 523.80 787.80 L 526.20 784.10 L 528.90 780.60 L 531.90 777.30 L 535.90 773.60 L 540.20 770.30 L 544.80 767.40 L 549.50 764.90 L 559.50 760.80 L 567.40 758.50 L 575.30 756.70 Z" fill="#939da2" fill-rule="nonzero" node-id="156" stroke="none" target-height="83.39996" target-width="163.5" target-x="509.8" target-y="755.2"/><path d="M 551.70 774.20 L 556.50 771.30 L 561.50 768.70 L 566.80 766.50 L 577.60 763.30 L 583.10 762.20 L 588.80 761.50 L 600.00 760.80 L 608.30 761.30 L 616.40 762.40 L 624.50 763.90 L 632.50 766.00 L 640.40 768.40 L 655.70 774.40 L 669.50 781.30 L 687.90 791.70 L 694.20 795.00 L 700.70 797.90 L 703.50 801.90 L 705.90 806.20 L 702.40 808.70 L 691.50 803.40 L 659.30 786.70 L 644.50 780.30 L 636.90 777.60 L 629.60 775.30 L 622.10 773.50 L 614.50 772.10 L 606.80 771.30 L 599.20 770.90 L 591.50 771.20 L 580.10 772.60 L 568.90 775.50 L 563.50 777.70 L 554.90 782.40 L 548.80 787.30 L 546.20 790.10 L 543.80 793.20 L 540.20 800.20 L 538.80 804.00 L 536.70 811.80 L 525.30 815.90 L 531.30 797.90 L 535.20 790.40 L 537.90 786.60 L 540.90 783.10 L 544.30 779.80 L 551.70 774.20 Z" fill="#939da2" fill-rule="nonzero" node-id="158" stroke="none" target-height="55.100037" target-width="180.60004" target-x="525.3" target-y="760.8"/><path d="M 543.50 815.70 L 559.00 814.30 L 566.80 814.20 L 578.50 814.50 L 590.20 815.20 L 613.50 817.80 L 625.70 819.60 L 637.90 821.90 L 650.00 824.60 L 671.50 830.50 L 676.10 832.10 L 680.60 834.10 L 676.00 833.20 L 662.50 829.40 L 649.60 826.20 L 636.60 823.50 L 623.50 821.30 L 597.20 818.00 L 584.00 816.80 L 562.70 816.70 L 548.50 817.80 L 539.20 819.70 L 536.90 820.70 L 532.70 823.20 L 540.50 821.50 L 548.40 820.40 L 556.40 819.80 L 564.30 819.70 L 580.30 820.30 L 604.20 822.60 L 628.90 826.30 L 641.10 828.60 L 661.40 833.40 L 677.20 838.40 L 671.50 846.60 L 648.30 842.70 L 640.60 841.80 L 635.40 841.70 L 630.20 841.90 L 623.40 843.00 L 620.50 844.60 L 619.50 845.80 L 618.90 847.80 L 620.10 851.20 L 621.50 853.10 L 623.20 854.70 L 629.30 858.70 L 637.60 862.80 L 646.10 866.40 L 654.80 869.50 L 668.20 873.50 L 681.60 877.00 L 707.30 882.70 L 718.00 884.30 L 724.20 883.10 L 714.40 879.20 L 718.10 870.70 L 719.50 868.00 L 723.30 863.10 L 725.40 863.00 L 729.60 865.00 L 741.40 872.50 L 747.10 877.60 L 750.60 882.60 L 752.20 887.00 L 752.40 888.50 L 752.10 889.80 L 751.20 891.10 L 748.10 892.80 L 741.40 894.60 L 737.90 895.10 L 728.20 895.70 L 718.40 895.80 L 708.70 895.50 L 694.20 894.40 L 679.60 892.70 L 650.80 888.00 L 637.20 885.20 L 623.80 881.90 L 610.50 878.30 L 597.30 874.20 L 584.20 869.70 L 571.30 864.90 L 553.00 856.90 L 541.30 850.60 L 531.70 844.40 L 528.00 841.40 L 523.60 836.80 L 521.80 834.20 L 520.80 832.20 L 520.40 830.10 L 520.40 827.90 L 521.00 825.70 L 522.00 823.80 L 523.70 822.30 L 526.60 820.40 L 529.80 819.00 L 536.60 817.00 L 543.50 815.70 Z" fill="#939da2" fill-rule="nonzero" node-id="160" stroke="none" target-height="81.599976" target-width="232" target-x="520.4" target-y="814.2"/><path d="M 518.40 838.30 L 522.90 842.90 L 527.70 847.00 L 532.80 850.70 L 543.60 857.30 L 549.30 860.20 L 566.70 867.90 L 579.60 872.80 L 592.60 877.30 L 605.70 881.50 L 618.90 885.20 L 632.30 888.50 L 645.70 891.50 L 660.50 894.20 L 675.40 896.70 L 695.30 899.00 L 712.70 900.30 L 720.00 900.50 L 734.70 900.00 L 749.20 898.20 L 746.60 902.30 L 745.70 903.00 L 741.00 904.70 L 737.40 905.50 L 733.80 905.90 L 722.70 906.30 L 700.40 905.90 L 678.30 903.80 L 663.60 901.70 L 649.00 899.20 L 634.50 896.20 L 619.40 892.50 L 604.40 888.30 L 589.50 883.50 L 574.80 878.20 L 560.40 872.30 L 546.20 865.80 L 531.90 857.70 L 527.40 854.60 L 521.90 849.80 L 518.60 845.80 L 518.10 842.90 L 518.40 838.30 Z" fill="#939da2" fill-rule="nonzero" node-id="162" stroke="none" target-height="68" target-width="231.10004" target-x="518.1" target-y="838.3"/><path d="M 623.10 848.00 L 628.10 846.90 L 633.10 846.30 L 638.10 846.20 L 645.70 846.80 L 653.30 848.00 L 668.10 851.20 L 659.80 866.30 L 652.70 864.20 L 645.80 861.80 L 632.30 855.80 L 629.60 854.30 L 627.20 852.50 L 623.10 848.00 Z" fill="#939da2" fill-rule="nonzero" node-id="164" stroke="none" target-height="20.099976" target-width="45" target-x="623.1" target-y="846.2"/><path d="M 515.50 858.60 L 517.00 850.60 L 524.70 857.60 L 528.80 860.60 L 535.40 864.80 L 542.20 868.40 L 553.00 873.60 L 563.90 878.30 L 586.20 886.80 L 601.30 891.60 L 616.60 896.00 L 632.00 899.80 L 645.20 902.60 L 658.40 905.10 L 671.80 907.10 L 685.10 908.70 L 698.60 909.80 L 717.60 910.70 L 723.10 910.70 L 736.90 909.50 L 745.10 908.20 L 742.10 914.10 L 738.00 915.70 L 733.70 916.70 L 725.00 917.80 L 712.80 918.00 L 700.50 917.70 L 688.30 916.80 L 670.10 914.80 L 652.00 912.20 L 638.10 909.50 L 624.30 906.40 L 610.60 902.90 L 596.90 899.00 L 583.50 894.70 L 570.10 890.00 L 558.70 885.40 L 547.60 880.40 L 533.20 872.80 L 526.20 868.50 L 520.30 864.10 L 517.70 861.60 L 515.50 858.60 Z" fill="#939da2" fill-rule="nonzero" node-id="166" stroke="none" target-height="67.400024" target-width="229.59998" target-x="515.5" target-y="850.6"/><path d="M 609.40 907.00 L 616.70 908.80 L 613.50 919.00 L 596.30 993.60 L 602.20 994.90 L 604.20 994.80 L 605.30 993.90 L 606.80 991.40 L 608.00 987.10 L 624.70 910.90 L 634.90 913.00 L 631.30 914.00 L 626.00 936.30 L 621.40 958.80 L 642.60 963.00 L 653.10 965.60 L 663.50 968.70 L 673.70 972.20 L 683.80 976.10 L 694.70 981.10 L 705.10 987.00 L 712.80 993.00 L 720.80 1000.30 L 717.10 1004.70 L 714.00 1000.80 L 710.50 997.40 L 706.80 994.30 L 698.40 989.20 L 687.20 984.00 L 670.50 977.70 L 660.40 974.40 L 640.00 968.90 L 619.30 964.50 L 613.50 990.70 L 611.50 996.10 L 609.30 999.00 L 607.60 999.90 L 605.00 1000.60 L 602.30 1000.70 L 599.60 1000.40 L 597.10 999.60 L 594.70 998.40 L 592.60 996.70 L 591.50 995.20 L 591.00 993.60 L 590.90 991.90 L 591.60 986.60 L 594.70 973.60 L 597.20 960.40 L 586.40 958.60 L 575.60 957.40 L 544.40 955.10 L 534.90 955.00 L 525.30 955.30 L 514.50 956.10 L 515.80 950.30 L 528.40 949.80 L 554.90 949.60 L 565.90 950.00 L 577.00 950.90 L 598.90 953.90 L 604.50 930.50 L 609.40 907.00 Z" fill="#939da2" fill-rule="nonzero" node-id="168" stroke="none" target-height="97.70001" target-width="206.29999" target-x="514.5" target-y="907"/><path d="M 563.60 763.90 L 571.60 761.80 L 579.70 760.20 L 587.80 759.30 L 596.10 759.00 L 604.30 759.20 L 612.50 760.00 L 620.70 761.20 L 628.80 762.90 L 643.00 767.10 L 649.20 769.60 L 673.30 780.50 L 680.10 784.20 L 694.10 792.60 L 697.60 795.00 L 700.70 797.90 L 694.20 795.00 L 687.90 791.70 L 669.50 781.30 L 663.20 778.00 L 655.70 774.40 L 640.40 768.40 L 632.50 766.00 L 624.50 763.90 L 616.40 762.40 L 608.30 761.30 L 600.00 760.80 L 588.80 761.50 L 577.60 763.30 L 566.80 766.50 L 561.50 768.70 L 556.50 771.30 L 551.70 774.20 L 544.30 779.80 L 540.90 783.10 L 537.90 786.60 L 535.20 790.40 L 532.90 794.40 L 530.00 801.40 L 525.30 815.90 L 519.00 820.20 L 521.70 806.30 L 522.90 801.80 L 524.50 797.40 L 529.40 788.50 L 532.50 784.20 L 536.10 780.20 L 540.10 776.60 L 544.30 773.30 L 548.90 770.40 L 553.60 767.80 L 558.50 765.70 L 563.60 763.90 Z" fill="#d9d6d6" fill-rule="nonzero" node-id="170" stroke="none" target-height="61.200012" target-width="181.70001" target-x="519" target-y="759"/><path d="M 743.70 794.40 L 765.00 782.50 L 769.10 779.90 L 785.80 786.20 L 793.90 789.90 L 801.80 793.90 L 817.30 802.70 L 808.20 803.70 L 799.30 805.20 L 790.40 807.40 L 783.80 809.50 L 771.20 814.60 L 765.00 817.70 L 759.10 821.10 L 753.40 824.90 L 748.00 829.00 L 742.70 833.40 L 735.90 840.00 L 724.90 851.50 L 717.20 861.60 L 713.80 866.90 L 710.80 872.50 L 708.30 878.40 L 689.30 874.10 L 670.60 869.10 L 684.60 848.30 L 695.50 834.80 L 701.60 828.20 L 708.00 821.90 L 714.80 815.80 L 724.10 808.20 L 733.70 801.10 L 743.70 794.40 Z M 754.20 796.80 L 745.60 801.50 L 737.30 806.60 L 729.20 812.10 L 721.50 818.10 L 714.10 824.50 L 707.10 831.30 L 700.50 838.50 L 694.40 846.10 L 688.80 854.20 L 687.00 857.20 L 685.70 860.30 L 684.10 867.10 L 686.40 865.30 L 690.30 861.10 L 697.50 850.30 L 705.80 840.10 L 711.80 833.70 L 718.10 827.50 L 724.70 821.70 L 738.70 811.00 L 753.50 801.40 L 757.90 799.00 L 771.70 793.10 L 776.10 790.80 L 780.30 788.00 L 775.70 788.60 L 771.30 789.70 L 762.60 793.00 L 754.20 796.80 Z" fill="#d9d6d6" fill-rule="nonzero" node-id="172" stroke="none" target-height="98.5" target-width="146.70001" target-x="670.6" target-y="779.9"/><path d="M 508.70 859.10 L 511.70 858.90 L 466.80 1035.60 L 458.10 1071.10 L 455.50 1082.90 L 454.50 1089.00 L 454.10 1095.00 L 454.20 1098.90 L 454.90 1102.90 L 456.10 1106.80 L 458.20 1111.50 L 460.70 1115.90 L 463.70 1120.00 L 470.70 1127.40 L 480.70 1135.40 L 487.00 1139.70 L 494.90 1144.30 L 503.00 1148.50 L 511.30 1152.40 L 519.70 1155.90 L 531.20 1160.00 L 542.80 1163.70 L 554.50 1166.80 L 568.60 1169.90 L 582.80 1172.30 L 601.90 1174.60 L 621.10 1175.60 L 630.70 1175.50 L 640.30 1174.90 L 652.50 1172.90 L 658.60 1171.40 L 664.40 1169.40 L 668.10 1167.70 L 671.60 1165.50 L 675.00 1163.00 L 677.20 1160.80 L 679.00 1158.30 L 685.30 1147.60 L 684.10 1153.70 L 683.00 1156.60 L 679.80 1162.10 L 675.50 1166.70 L 673.10 1168.70 L 666.70 1172.30 L 662.80 1173.90 L 652.60 1176.50 L 646.40 1177.50 L 637.50 1178.40 L 622.60 1179.20 L 616.60 1179.00 L 599.10 1177.60 L 587.60 1176.20 L 576.10 1174.40 L 564.70 1172.10 L 542.20 1166.40 L 530.00 1162.50 L 517.90 1158.20 L 502.10 1151.40 L 494.50 1147.60 L 487.10 1143.40 L 479.90 1138.80 L 472.90 1133.70 L 463.70 1125.20 L 460.80 1122.10 L 456.00 1115.30 L 454.00 1111.70 L 452.40 1107.80 L 450.60 1100.70 L 450.30 1094.70 L 451.40 1085.60 L 453.30 1076.70 L 466.80 1022.20 L 508.70 859.10 Z" fill="#d9d6d6" fill-rule="nonzero" node-id="174" stroke="none" target-height="320.29993" target-width="235" target-x="450.3" target-y="858.9"/><path d="M 527.60 874.40 L 536.10 879.30 L 544.90 883.80 L 553.80 887.80 L 567.40 893.30 L 581.30 898.20 L 609.40 907.00 L 604.50 930.50 L 598.90 953.90 L 577.00 950.90 L 565.90 950.00 L 554.90 949.60 L 555.40 943.10 L 555.20 936.60 L 554.70 933.40 L 553.70 930.30 L 552.30 927.30 L 550.60 924.70 L 548.40 922.30 L 546.00 920.20 L 543.30 918.40 L 540.40 917.00 L 537.30 916.00 L 534.20 915.40 L 531.00 915.40 L 529.20 915.70 L 527.60 916.40 L 526.20 917.40 L 524.50 919.50 L 523.30 921.90 L 521.10 928.50 L 519.50 935.30 L 517.10 949.10 L 528.40 949.80 L 515.80 950.30 L 508.20 951.10 L 512.20 938.40 L 519.10 912.50 L 525.90 884.00 L 527.60 874.40 Z" fill="#d9d6d6" fill-rule="nonzero" node-id="176" stroke="none" target-height="79.5" target-width="101.20001" target-x="508.2" target-y="874.4"/><path d="M 745.50 919.00 L 754.80 918.90 L 766.10 917.20 L 779.50 913.60 L 799.20 907.20 L 793.40 915.30 L 775.30 936.40 L 764.20 950.50 L 757.10 960.00 L 742.60 981.50 L 739.70 984.00 L 737.10 985.30 L 734.30 986.10 L 728.40 986.80 L 732.40 969.80 L 745.50 919.00 Z" fill="#d9d6d6" fill-rule="nonzero" node-id="178" stroke="none" target-height="79.599976" target-width="70.79999" target-x="728.4" target-y="907.2"/><path d="M 611.10 929.50 L 613.50 919.00 L 616.70 908.80 L 624.70 910.90 L 608.00 987.10 L 606.20 992.70 L 604.20 994.80 L 602.20 994.90 L 596.30 993.60 L 611.10 929.50 Z" fill="#d9d6d6" fill-rule="nonzero" node-id="180" stroke="none" target-height="86.10004" target-width="28.400024" target-x="596.3" target-y="908.8"/><path d="M 631.30 914.00 L 634.90 913.00 L 649.60 915.90 L 664.40 918.30 L 679.30 920.20 L 694.30 921.40 L 709.30 922.00 L 724.30 922.00 L 721.80 923.10 L 717.40 926.00 L 714.40 928.70 L 711.80 931.80 L 704.20 942.50 L 697.00 953.40 L 690.20 964.60 L 683.80 976.10 L 673.70 972.20 L 663.50 968.70 L 653.10 965.60 L 642.60 963.00 L 621.40 958.80 L 626.00 936.30 L 631.30 914.00 Z" fill="#d9d6d6" fill-rule="nonzero" node-id="182" stroke="none" target-height="63.099976" target-width="102.89996" target-x="621.4" target-y="913"/><path d="M 492.90 960.60 L 498.10 958.80 L 503.50 957.50 L 515.70 956.00 L 512.40 968.10 L 511.80 972.30 L 511.60 976.50 L 511.90 980.70 L 506.50 990.30 L 510.40 979.90 L 500.90 974.20 L 495.10 969.90 L 491.90 966.20 L 491.80 964.00 L 492.90 960.60 Z" fill="#d9d6d6" fill-rule="nonzero" node-id="184" stroke="none" target-height="34.299988" target-width="23.900024" target-x="491.8" target-y="956"/><path d="M 680.40 981.30 L 694.00 987.00 L 702.70 991.60 L 706.80 994.30 L 710.50 997.40 L 714.00 1000.80 L 717.10 1004.70 L 713.60 1007.00 L 710.00 1008.90 L 706.20 1010.50 L 700.30 1012.20 L 694.10 1013.30 L 681.80 1014.20 L 661.00 1013.40 L 663.50 1007.70 L 666.50 1002.20 L 680.40 981.30 Z" fill="#d9d6d6" fill-rule="nonzero" node-id="186" stroke="none" target-height="32.900024" target-width="56.099976" target-x="661" target-y="981.3"/><path d="M 713.50 1039.20 L 714.10 1034.20 L 715.10 1029.30 L 721.10 1010.10 L 719.70 1020.10 L 718.50 1025.00 L 716.20 1032.20 L 713.50 1039.20 Z" fill="#d9d6d6" fill-rule="nonzero" node-id="188" stroke="none" target-height="29.099976" target-width="7.5999756" target-x="713.5" target-y="1010.1"/><path d="M 781.20 817.20 L 789.70 814.40 L 798.40 812.20 L 807.20 810.50 L 816.10 809.20 L 821.20 808.80 L 826.30 808.80 L 831.50 809.20 L 827.20 815.40 L 820.50 821.90 L 813.40 827.10 L 799.30 834.30 L 802.60 834.40 L 805.70 834.20 L 808.70 833.40 L 814.40 830.90 L 817.20 829.20 L 824.70 823.30 L 830.60 817.50 L 836.00 811.20 L 848.20 812.80 L 837.80 828.50 L 834.80 834.00 L 810.10 842.60 L 805.10 843.90 L 800.00 844.70 L 794.70 844.90 L 787.00 844.60 L 779.30 843.80 L 771.60 842.40 L 765.90 841.00 L 755.00 837.00 L 749.70 834.40 L 754.30 830.60 L 759.30 827.20 L 764.50 824.30 L 770.00 821.70 L 781.20 817.20 Z" fill="#c85347" fill-rule="nonzero" node-id="190" stroke="none" target-height="36.100037" target-width="98.5" target-x="749.7" target-y="808.8"/><path d="M 493.40 955.10 L 508.20 951.10 L 515.80 950.30 L 514.50 956.10 L 503.50 957.50 L 498.10 958.80 L 492.90 960.60 L 492.50 955.40 L 493.40 955.10 Z" fill="#c85347" fill-rule="nonzero" node-id="192" stroke="none" target-height="10.299988" target-width="23.299988" target-x="492.5" target-y="950.3"/><path d="M 489.10 970.70 L 498.50 978.00 L 505.30 981.90 L 508.90 983.50 L 506.50 990.30 L 510.20 983.90 L 522.60 989.10 L 535.30 993.80 L 548.10 998.00 L 561.10 1001.80 L 587.30 1008.50 L 614.00 1013.70 L 627.40 1015.80 L 640.90 1017.60 L 654.40 1018.70 L 668.00 1019.30 L 676.30 1019.10 L 684.60 1018.60 L 692.90 1017.50 L 701.00 1015.90 L 711.60 1012.70 L 716.70 1010.60 L 704.30 1056.50 L 682.40 1056.30 L 675.20 1056.80 L 669.80 1058.40 L 667.20 1059.90 L 665.20 1061.70 L 664.10 1063.20 L 663.40 1064.90 L 663.00 1068.90 L 663.90 1072.70 L 669.60 1083.40 L 670.60 1086.20 L 671.00 1089.20 L 670.00 1090.90 L 668.80 1092.30 L 667.30 1093.40 L 664.70 1094.70 L 654.00 1098.10 L 649.30 1100.30 L 647.50 1101.90 L 646.70 1103.20 L 646.20 1104.70 L 646.20 1106.60 L 647.20 1108.80 L 649.90 1112.60 L 652.40 1115.10 L 675.10 1134.40 L 678.30 1137.80 L 681.00 1141.70 L 679.80 1146.90 L 678.60 1149.30 L 675.40 1153.70 L 670.20 1158.10 L 666.70 1160.10 L 661.40 1162.40 L 656.00 1164.20 L 650.40 1165.60 L 639.00 1167.20 L 624.50 1167.60 L 606.20 1167.10 L 596.40 1166.10 L 577.00 1163.20 L 557.80 1159.50 L 560.40 1152.50 L 562.60 1145.30 L 590.90 1043.20 L 597.00 1022.20 L 599.00 1011.50 L 595.90 1018.90 L 593.40 1026.60 L 575.60 1089.00 L 559.80 1147.20 L 558.60 1152.80 L 557.90 1158.60 L 551.90 1157.50 L 546.00 1156.00 L 525.40 1148.80 L 507.70 1141.20 L 499.10 1136.80 L 490.80 1131.90 L 482.80 1126.50 L 478.70 1123.40 L 474.90 1120.00 L 471.30 1116.30 L 468.10 1112.30 L 464.70 1106.30 L 462.50 1099.90 L 461.60 1093.40 L 461.70 1088.40 L 463.10 1078.40 L 470.20 1047.80 L 489.10 970.70 Z M 493.70 1007.00 L 492.70 1011.40 L 492.20 1015.90 L 492.40 1018.20 L 493.10 1020.40 L 495.20 1014.00 L 497.00 1007.40 L 497.70 1002.90 L 498.10 998.40 L 498.10 993.80 L 496.40 996.90 L 495.20 1000.10 L 493.70 1007.00 Z M 500.60 1021.30 L 502.70 1023.10 L 506.90 1025.20 L 510.50 1025.60 L 512.20 1025.30 L 513.80 1024.50 L 515.40 1023.30 L 518.20 1018.80 L 520.20 1012.60 L 520.80 1008.60 L 520.90 1000.60 L 516.00 999.30 L 506.20 997.70 L 502.70 1009.30 L 501.40 1015.30 L 500.60 1021.30 Z M 572.50 1025.70 L 570.00 1027.10 L 569.20 1028.20 L 568.50 1030.10 L 568.20 1032.20 L 568.80 1036.40 L 569.80 1037.70 L 572.40 1039.10 L 574.50 1039.50 L 576.80 1039.20 L 578.90 1038.40 L 581.80 1036.00 L 583.10 1033.20 L 583.10 1031.50 L 582.60 1029.90 L 580.50 1027.20 L 577.50 1025.50 L 575.80 1025.10 L 574.20 1025.20 L 572.50 1025.70 Z M 485.90 1036.30 L 483.80 1046.40 L 483.10 1053.20 L 483.20 1056.60 L 484.60 1054.60 L 486.40 1050.00 L 489.60 1035.30 L 490.00 1031.60 L 489.80 1027.80 L 488.10 1030.40 L 486.80 1033.30 L 485.90 1036.30 Z M 498.20 1031.40 L 494.90 1044.30 L 492.50 1057.40 L 493.60 1058.90 L 494.90 1060.00 L 496.50 1060.70 L 500.00 1061.20 L 503.70 1060.50 L 506.60 1058.60 L 508.60 1054.90 L 510.10 1050.90 L 512.30 1042.70 L 512.80 1038.20 L 512.20 1035.40 L 511.30 1034.20 L 509.40 1032.70 L 507.40 1031.80 L 505.10 1031.30 L 498.20 1031.40 Z M 560.70 1063.30 L 559.30 1064.00 L 557.40 1066.00 L 556.50 1068.00 L 556.20 1070.10 L 556.40 1072.30 L 557.20 1074.30 L 559.20 1076.30 L 562.00 1077.40 L 564.90 1077.40 L 567.00 1076.60 L 568.90 1075.30 L 570.40 1073.50 L 571.20 1071.40 L 571.20 1068.60 L 569.50 1065.50 L 568.10 1064.30 L 566.40 1063.40 L 564.50 1063.00 L 560.70 1063.30 Z M 476.60 1076.40 L 474.90 1084.60 L 474.40 1088.70 L 474.20 1092.90 L 476.70 1088.50 L 480.30 1071.30 L 480.90 1063.40 L 478.60 1067.40 L 476.60 1076.40 Z M 488.60 1069.60 L 484.70 1086.10 L 483.50 1094.50 L 484.30 1096.00 L 486.50 1098.10 L 488.70 1099.10 L 491.10 1099.40 L 493.40 1099.20 L 495.60 1098.30 L 498.00 1096.30 L 501.00 1089.60 L 502.60 1084.10 L 503.30 1080.30 L 503.50 1076.50 L 503.20 1072.70 L 500.50 1070.50 L 496.50 1069.20 L 493.80 1069.00 L 488.60 1069.60 Z M 472.40 1100.30 L 472.40 1105.80 L 472.80 1111.30 L 474.30 1108.90 L 475.10 1106.30 L 475.70 1100.80 L 472.40 1100.30 Z M 548.70 1101.70 L 547.30 1102.70 L 545.40 1105.30 L 544.70 1108.40 L 545.20 1111.60 L 547.10 1114.30 L 549.60 1115.60 L 553.30 1115.70 L 555.40 1115.00 L 557.30 1113.90 L 558.80 1112.30 L 559.40 1111.10 L 559.80 1108.10 L 559.60 1106.20 L 558.80 1104.40 L 557.60 1103.00 L 556.00 1101.90 L 554.20 1101.10 L 552.30 1100.80 L 550.40 1101.00 L 548.70 1101.70 Z M 487.20 1105.40 L 486.00 1106.30 L 484.30 1108.50 L 483.60 1110.60 L 483.50 1112.80 L 483.80 1114.90 L 484.70 1116.80 L 486.70 1118.70 L 488.10 1119.40 L 491.20 1119.20 L 492.50 1118.60 L 494.20 1117.20 L 495.50 1115.30 L 496.30 1113.10 L 496.40 1110.80 L 496.20 1109.30 L 494.70 1106.70 L 493.00 1105.60 L 489.70 1104.80 L 487.20 1105.40 Z" fill="#c85347" fill-rule="nonzero" node-id="194" stroke="none" target-height="196.89996" target-width="255.1" target-x="461.6" target-y="970.7"/></g></svg>